<?xml version="1.0" encoding="UTF-8"?>
<svg id="_圖層_2" data-name="圖層 2" xmlns="http://www.w3.org/2000/svg" xmlns:xlink="http://www.w3.org/1999/xlink" viewBox="0 0 185.22 61.17">
  <defs>
    <style>
      .cls-1, .cls-2, .cls-3, .cls-4 {
        fill-rule: evenodd;
      }

      .cls-1, .cls-5 {
        fill: #323333;
      }

      .cls-2 {
        fill: url(#GradientFill_1-2);
      }

      .cls-3 {
        fill: #a08e47;
      }

      .cls-6 {
        fill: #3e3a39;
      }

      .cls-4 {
        fill: url(#GradientFill_1);
      }
    </style>
    <linearGradient id="GradientFill_1" data-name="GradientFill 1" x1="19.55" y1="30.58" x2="53.86" y2="30.58" gradientUnits="userSpaceOnUse">
      <stop offset="0" stop-color="#bb9b4a"/>
      <stop offset="1" stop-color="#fff"/>
    </linearGradient>
    <linearGradient id="GradientFill_1-2" data-name="GradientFill 1" x1="19.55" y1="35.74" x2="53.86" y2="35.74" xlink:href="#GradientFill_1"/>
  </defs>
  <g id="_圖層_2-2" data-name="圖層 2">
    <g>
      <polygon class="cls-5" points="143.72 40.92 140.79 40.92 140.79 18.23 143.72 19.37 143.72 40.92"/>
      <rect class="cls-6" x="125.93" y="19.42" width="7.93" height="1.32"/>
      <rect class="cls-5" x="127.86" y="28.48" width="6.28" height="1.3"/>
      <rect class="cls-5" x="135.71" y="33.03" width="13.92" height="1.32"/>
      <rect class="cls-5" x="134.09" y="36.91" width="17.47" height="1.32"/>
      <rect class="cls-6" x="135.71" y="20.79" width="12.67" height="1.32"/>
      <rect class="cls-5" x="135.71" y="29.16" width="12.67" height="1.32"/>
      <rect class="cls-5" x="134.09" y="24.9" width="17.47" height="1.32"/>
      <rect class="cls-5" x="146.85" y="20.79" width="2.77" height="9.67"/>
      <polygon class="cls-5" points="129.27 29.78 126.51 29.78 131.96 19.41 134.73 19.41 129.27 29.78"/>
      <path class="cls-5" d="M131.48,29.45l2.68.06s.53,10.72-7.68,14.37l-1.25-.88s6.85-1.83,6.25-13.55Z"/>
      <path class="cls-5" d="M126.43,31.66h2.65s.36,5.18,1.95,6.99,3.54,3.3,7.38,3.3h13.93l-1.33,1.37h-12.87s-6.25-.07-8.49-3.23c-3.59-5.06-3.23-8.44-3.23-8.44Z"/>
    </g>
    <g>
      <polygon class="cls-5" points="112.38 26.1 109.45 26.1 109.45 18.07 112.38 19.21 112.38 26.1"/>
      <polygon class="cls-6" points="105.79 21.99 102.86 21.99 102.86 18.07 105.79 19.21 105.79 21.99"/>
      <rect class="cls-6" x="110" y="20.79" width="8.05" height="1.32"/>
      <rect class="cls-6" x="92.58" y="20.6" width="7.15" height="1.32"/>
      <rect class="cls-5" x="92.58" y="28.73" width="7.15" height="1.32"/>
      <rect class="cls-5" x="100.77" y="31.11" width="7.27" height="1.32"/>
      <rect class="cls-5" x="100.51" y="21.5" width="7.88" height="1.32"/>
      <rect class="cls-5" x="100.51" y="28.02" width="7.88" height="1.32"/>
      <rect class="cls-5" x="101.73" y="34.35" width="5.75" height="1.32"/>
      <rect class="cls-5" x="101.73" y="37.84" width="5.75" height="1.32"/>
      <rect class="cls-5" x="110" y="31.3" width="7.11" height="1.32"/>
      <rect class="cls-5" x="110" y="28.48" width="7.11" height="1.32"/>
      <rect class="cls-5" x="110.04" y="24.78" width="7.11" height="1.32"/>
      <rect class="cls-5" x="110" y="34.52" width="7.11" height="1.32"/>
      <rect class="cls-5" x="110" y="37.59" width="7.11" height="1.32"/>
      <rect class="cls-5" x="114.47" y="24.78" width="2.77" height="5.03"/>
      <polygon class="cls-5" points="97.72 38.76 94.94 39.09 94.94 21.35 97.71 21.35 97.72 38.76"/>
      <rect class="cls-5" x="100.77" y="31.11" width="2.19" height="12.51"/>
      <path class="cls-5" d="M100.77,24.08s1.32,2.51,1.26,3.65l2.12-1.2s-1.26-1.91-2.42-2.9l-.96.45Z"/>
      <path class="cls-5" d="M105.94,23.3s-.42,2.69-1.05,3.95l.9.45,2.39-2.9-2.24-1.49Z"/>
      <polygon class="cls-5" points="92.87 38.97 92.84 41.69 99.81 37.77 99.81 36.55 92.87 38.97"/>
      <path class="cls-5" d="M109.61,28.47h2.56v12.68s-.13.87.93.87h2.01s1.16.34,1.48-2.65l2.01,1.48s-.16,2.36-3.44,2.36h-3.46s-2.07-.24-2.07-1.94c0,0,0-12.79-.02-12.79Z"/>
      <path class="cls-5" d="M105.76,32.05h2.25v9.23s.17,2.3-1.65,2.3h-1.75l-.57-1.25,1.02.07s.71.2.71-.76c0,0-.07-9.64-.02-9.59Z"/>
    </g>
    <g>
      <rect class="cls-5" x="59.37" y="21.71" width="13.26" height="1.32"/>
      <rect class="cls-5" x="59.37" y="33.69" width="13.26" height="1.32"/>
      <rect class="cls-5" x="59.37" y="27.64" width="13.26" height="1.32"/>
      <polygon class="cls-6" points="83.91 20.65 75.82 20.65 75.82 19.33 84.81 19.33 83.91 20.65"/>
      <rect class="cls-5" x="73.84" y="19.33" width="2.77" height="24.68"/>
      <path class="cls-5" d="M64.89,18.13v13.6s.84,6.75-5.69,11.28l.96,1.06s7.49-3.09,7.49-12.41v-12.05l-2.76-1.48Z"/>
      <path class="cls-5" d="M84.81,19.33v.89l-4.11,8.7s4,4.34,4.05,7.88c0,0,.68,3.98-2.65,4.32h-3.88l-.6-1.42s2.56.52,3.22.31,1.35-1.25,1.08-3.62-1.37-4.9-3.57-7.46l3.38-9.23,3.09-.39Z"/>
    </g>
    <g>
      <rect class="cls-6" x="160.17" y="19.11" width="8.77" height="1.32"/>
      <rect class="cls-6" x="172.16" y="19.11" width="8.05" height="1.32"/>
      <rect class="cls-5" x="160.17" y="26.89" width="8.77" height="1.32"/>
      <rect class="cls-5" x="169.75" y="30.55" width="13.51" height="1.32"/>
      <rect class="cls-5" x="160.17" y="30.74" width="8.77" height="1.32"/>
      <rect class="cls-5" x="160.23" y="41.45" width="8.66" height="1.32"/>
      <rect class="cls-5" x="159.13" y="23" width="10.85" height="1.32"/>
      <rect class="cls-5" x="160.23" y="34.77" width="8.66" height="1.32"/>
      <rect class="cls-5" x="160.1" y="34.77" width="2.77" height="9.25"/>
      <rect class="cls-5" x="166.24" y="34.77" width="2.77" height="8.02"/>
      <path class="cls-5" d="M172.16,19.87l2.89-.08s.13,4.05-.74,6.14c0,0-.79,2.3-3.84,3.73l-1.22-1.01s2.89-1.14,2.89-4.97c0,0,.02-3.76.02-3.81Z"/>
      <path class="cls-5" d="M177.57,19.11h2.72v7.47s0,.51.43.51h1.04s.47-.09.59-.7.39-2.67.39-2.67l2.31,1.31s-.48,3.3-3.01,3.3h-2.75s-1.72.1-1.72-1.7c0,0-.03-7.54-.02-7.52Z"/>
      <path class="cls-5" d="M171.93,33.08l3.02-.84s1,7.15,10.27,10.72l-.96,1.09s-9.74-2.94-12.33-10.98Z"/>
      <path class="cls-5" d="M168.99,42.99s9.72-2.41,11.54-11.48v-.97s3.22,0,3.22,0c0,0-1.98,11.54-13.95,13.45l-.8-1.01Z"/>
    </g>
    <polygon class="cls-1" points="6.65 12.09 6.65 12.09 0 8.14 0 50.18 19.38 61.17 19.38 53.64 6.65 46.42 6.65 12.09"/>
    <polygon class="cls-3" points="19.38 28.21 19.37 28.21 19.37 9.01 19.37 9.01 16.04 0 0 8.11 0 8.14 6.64 12.09 12.73 9.01 12.73 42.65 19.37 46.42 19.37 35.74 19.38 35.74 19.38 28.23 19.38 28.21"/>
    <polyline class="cls-4" points="16 0 19.34 9.01 19.33 9.01 25.43 12.09 25.43 24.76 19.33 28.21 19.34 28.21 19.34 28.23 19.34 35.74 28.75 30.4 38.16 35.74 38.16 46.42 32.07 49.87 32.07 36.89 28.75 35.39 25.43 36.89 25.43 61.17 44.8 50.18 44.8 31.98 32.07 24.76 32.07 8.11 16.01 0"/>
    <polygon class="cls-2" points="19.34 35.74 19.34 35.74 19.33 35.74 19.34 35.74"/>
  </g>
</svg>