<?xml version="1.0" encoding="UTF-8"?>
<svg xmlns="http://www.w3.org/2000/svg" xmlns:xlink="http://www.w3.org/1999/xlink" viewBox="0 0 798.71 203.8">
  <defs>
    <style>
      .cls-1 {
        fill: #e0e0e0;
      }

      .cls-2 {
        fill: #c2c2c2;
        opacity: .8;
      }

      .cls-3 {
        fill: #d3d3d3;
        opacity: .59;
      }

      .cls-4 {
        fill: #fbfbfb;
        opacity: .05;
      }

      .cls-5 {
        opacity: .56;
      }

      .cls-5, .cls-6 {
        fill: #d4d4d4;
      }

      .cls-7 {
        fill: #cfcfcf;
        opacity: .63;
      }

      .cls-8 {
        fill: #ebebeb;
        opacity: .27;
      }

      .cls-9 {
        opacity: .49;
      }

      .cls-9, .cls-10 {
        fill: #dadada;
      }

      .cls-11 {
        fill: #939393;
      }

      .cls-12 {
        fill: #8f8f8f;
      }

      .cls-13 {
        fill: #dfdfdf;
        opacity: .41;
      }

      .cls-14 {
        fill: gray;
      }

      .cls-15 {
        fill: #9c9c9c;
      }

      .cls-16, .cls-17 {
        fill: #e3e3e3;
      }

      .cls-18 {
        fill: #e6e6e6;
      }

      .cls-19, .cls-20 {
        fill: #b5b5b5;
      }

      .cls-21, .cls-22 {
        fill: #f6f6f6;
      }

      .cls-23 {
        fill: #868686;
      }

      .cls-22 {
        opacity: .12;
      }

      .cls-24 {
        fill: #a5a5a5;
      }

      .cls-25 {
        fill: #969696;
      }

      .cls-26 {
        fill: #d6d6d6;
        opacity: .54;
      }

      .cls-27 {
        fill: #c1c1c1;
      }

      .cls-28 {
        opacity: .07;
      }

      .cls-28, .cls-29 {
        fill: #f9f9f9;
      }

      .cls-30 {
        fill: #f2f2f2;
        opacity: .17;
      }

      .cls-31 {
        fill: url(#_侹禖鍕譇谾蜸馯鳺艜8);
      }

      .cls-32 {
        fill: #dcdcdc;
        opacity: .46;
      }

      .cls-33 {
        fill: url(#_侹禖鍕譇谾蜸馯鳺艜8-4);
      }

      .cls-34 {
        fill: url(#_侹禖鍕譇谾蜸馯鳺艜8-3);
      }

      .cls-35 {
        fill: url(#_侹禖鍕譇谾蜸馯鳺艜8-5);
      }

      .cls-36 {
        fill: url(#_侹禖鍕譇谾蜸馯鳺艜8-2);
      }

      .cls-37 {
        fill: #e7e7e7;
        opacity: .32;
      }

      .cls-38 {
        fill: #b7b7b7;
        opacity: .95;
      }

      .cls-39 {
        isolation: isolate;
      }

      .cls-40 {
        fill: #f8f8f8;
        opacity: .1;
      }

      .cls-41, .cls-42 {
        fill: #c4c4c4;
      }

      .cls-43 {
        fill: #c6c6c6;
        opacity: .76;
      }

      .cls-44 {
        mix-blend-mode: multiply;
      }

      .cls-45, .cls-46 {
        fill: #bebebe;
      }

      .cls-47 {
        fill: #dedede;
        opacity: .44;
      }

      .cls-48, .cls-49 {
        fill: #c7c7c7;
      }

      .cls-49 {
        opacity: .73;
      }

      .cls-50 {
        fill: #ddd;
      }

      .cls-51 {
        opacity: .29;
      }

      .cls-51, .cls-52 {
        fill: #e9e9e9;
      }

      .cls-53 {
        fill: #bcbcbc;
        opacity: .88;
      }

      .cls-54 {
        fill: #eee;
        opacity: .22;
      }

      .cls-55 {
        fill: #d7d7d7;
      }

      .cls-56 {
        fill: #e1e1e1;
        opacity: .39;
      }

      .cls-57 {
        fill: #fdfdfd;
        opacity: .02;
      }

      .cls-58, .cls-59 {
        fill: #fff;
      }

      .cls-60 {
        fill: #c9c9c9;
        opacity: .71;
      }

      .cls-61 {
        opacity: .2;
      }

      .cls-61, .cls-62 {
        fill: #f0f0f0;
      }

      .cls-63 {
        fill: #bababa;
        opacity: .9;
      }

      .cls-59, .cls-64 {
        opacity: 0;
      }

      .cls-65 {
        fill: url(#_未命名漸層_3-3);
      }

      .cls-66 {
        fill: url(#_未命名漸層_3-2);
      }

      .cls-67 {
        fill: #a48b78;
      }

      .cls-68, .cls-69 {
        fill: #cdcdcd;
      }

      .cls-70 {
        fill: #9f9f9f;
      }

      .cls-71 {
        fill: url(#_未命名漸層_3);
      }

      .cls-72 {
        fill: #bbb;
      }

      .cls-73 {
        fill: silver;
        opacity: .83;
      }

      .cls-74 {
        fill: #b8b8b8;
      }

      .cls-75 {
        opacity: .9;
      }

      .cls-76 {
        opacity: .88;
      }

      .cls-77 {
        opacity: .83;
      }

      .cls-78 {
        opacity: .85;
      }

      .cls-79 {
        opacity: .8;
      }

      .cls-80 {
        opacity: .78;
      }

      .cls-81 {
        opacity: .76;
      }

      .cls-82 {
        opacity: .71;
      }

      .cls-83 {
        opacity: .73;
      }

      .cls-84 {
        opacity: .68;
      }

      .cls-85 {
        opacity: .98;
      }

      .cls-86 {
        opacity: .93;
      }

      .cls-87 {
        opacity: .95;
      }

      .cls-88 {
        opacity: .44;
      }

      .cls-89 {
        opacity: .41;
      }

      .cls-90 {
        opacity: .39;
      }

      .cls-91 {
        opacity: .37;
      }

      .cls-92 {
        opacity: .34;
      }

      .cls-93 {
        opacity: .66;
      }

      .cls-94 {
        opacity: .61;
      }

      .cls-95 {
        opacity: .63;
      }

      .cls-96 {
        opacity: .59;
      }

      .cls-97 {
        opacity: .56;
      }

      .cls-98 {
        opacity: .54;
      }

      .cls-99 {
        opacity: .51;
      }

      .cls-100 {
        opacity: .49;
      }

      .cls-101 {
        opacity: .46;
      }

      .cls-102 {
        opacity: .22;
      }

      .cls-103 {
        opacity: .2;
      }

      .cls-104 {
        opacity: .17;
      }

      .cls-105 {
        opacity: .32;
      }

      .cls-106 {
        opacity: .29;
      }

      .cls-107 {
        opacity: .27;
      }

      .cls-108 {
        opacity: .24;
      }

      .cls-109 {
        opacity: .1;
      }

      .cls-110 {
        opacity: .15;
      }

      .cls-111 {
        opacity: .12;
      }

      .cls-112 {
        opacity: .05;
      }

      .cls-113 {
        opacity: .07;
      }

      .cls-114 {
        opacity: .02;
      }

      .cls-115 {
        fill: #c9bc9c;
      }

      .cls-17 {
        opacity: .37;
      }

      .cls-116 {
        fill: #a2a2a2;
      }

      .cls-117 {
        fill: #f4f4f4;
        opacity: .15;
      }

      .cls-118 {
        fill: #b3b3b3;
      }

      .cls-119 {
        fill: #ababab;
      }

      .cls-120 {
        fill: #b9b9b9;
        opacity: .93;
      }

      .cls-121 {
        opacity: .24;
      }

      .cls-121, .cls-122 {
        fill: #ececec;
      }

      .cls-123 {
        fill: #838383;
      }

      .cls-124 {
        fill: #a28a78;
      }

      .cls-125 {
        opacity: .61;
      }

      .cls-125, .cls-126 {
        fill: #d1d1d1;
      }

      .cls-127 {
        fill: #8c8c8c;
      }

      .cls-128 {
        fill: #f3f3f3;
      }

      .cls-129 {
        fill: #fcfcfc;
      }

      .cls-130 {
        fill: #aeaeae;
      }

      .cls-46 {
        opacity: .85;
      }

      .cls-131 {
        fill: #a8a8a8;
      }

      .cls-42 {
        opacity: .78;
      }

      .cls-132 {
        fill: #e5e5e5;
        opacity: .34;
      }

      .cls-133 {
        fill: #cbcbcb;
        opacity: .68;
      }

      .cls-20 {
        opacity: .98;
      }

      .cls-134 {
        fill: #cacaca;
      }

      .cls-135 {
        fill: #898989;
      }

      .cls-136 {
        fill: #999;
      }

      .cls-137 {
        fill: #d8d8d8;
        opacity: .51;
      }

      .cls-138 {
        fill: #b2b2b2;
      }

      .cls-69 {
        opacity: .66;
      }

      .cls-139 {
        fill: #7f4f21;
      }
    </style>
    <linearGradient id="_未命名漸層_3" data-name="未命名漸層 3" x1="44.66" y1="160.36" x2="177.36" y2="27.67" gradientUnits="userSpaceOnUse">
      <stop offset="0" stop-color="#956134"/>
      <stop offset="1" stop-color="#a48b78"/>
    </linearGradient>
    <linearGradient id="_侹禖鍕譇谾蜸馯鳺艜8" data-name="侹禖鍕譇谾蜸馯鳺艜8" x1="55.82" y1="149.67" x2="165.74" y2="39.75" gradientUnits="userSpaceOnUse">
      <stop offset="0" stop-color="#fff"/>
      <stop offset="1" stop-color="#e6e6e6"/>
    </linearGradient>
    <linearGradient id="_侹禖鍕譇谾蜸馯鳺艜8-2" data-name="侹禖鍕譇谾蜸馯鳺艜8" x1="249.73" y1="91.18" x2="271.97" y2="91.18" xlink:href="#_侹禖鍕譇谾蜸馯鳺艜8"/>
    <linearGradient id="_侹禖鍕譇谾蜸馯鳺艜8-3" data-name="侹禖鍕譇谾蜸馯鳺艜8" x1="542.43" y1="91.18" x2="564.66" y2="91.18" xlink:href="#_侹禖鍕譇谾蜸馯鳺艜8"/>
    <linearGradient id="_未命名漸層_3-2" data-name="未命名漸層 3" x1="341.3" y1="160.36" x2="474" y2="27.67" xlink:href="#_未命名漸層_3"/>
    <linearGradient id="_侹禖鍕譇谾蜸馯鳺艜8-4" data-name="侹禖鍕譇谾蜸馯鳺艜8" x1="352.46" y1="149.67" x2="462.38" y2="39.75" xlink:href="#_侹禖鍕譇谾蜸馯鳺艜8"/>
    <linearGradient id="_未命名漸層_3-3" data-name="未命名漸層 3" x1="637.1" y1="160.36" x2="769.79" y2="27.67" xlink:href="#_未命名漸層_3"/>
    <linearGradient id="_侹禖鍕譇谾蜸馯鳺艜8-5" data-name="侹禖鍕譇谾蜸馯鳺艜8" x1="648.25" y1="149.67" x2="758.18" y2="39.75" xlink:href="#_侹禖鍕譇谾蜸馯鳺艜8"/>
  </defs>
  <g class="cls-39">
    <g id="_圖層_2" data-name="圖層 2">
      <g id="_圖層_2-2" data-name="圖層 2">
        <rect class="cls-124" x="183.57" y="89.83" width="145.85" height="4"/>
        <g>
          <g>
            <g>
              <g class="cls-44">
                <path class="cls-59" d="M188.89,110.59c0,51.49-42.29,93.21-94.47,93.21S0,162.07,0,110.59,42.27,17.35,94.42,17.35s94.47,41.75,94.47,93.23Z"/>
                <path class="cls-57" d="M189.29,110.18c0,51.49-42.29,93.21-94.47,93.21S.4,161.67.4,110.18,42.67,16.95,94.83,16.95s94.47,41.75,94.47,93.23Z"/>
                <path class="cls-4" d="M189.7,109.78c0,51.49-42.29,93.21-94.47,93.21S.81,161.26.81,109.78,43.08,16.55,95.23,16.55s94.47,41.75,94.47,93.23Z"/>
                <path class="cls-28" d="M190.1,109.37c0,51.49-42.29,93.21-94.47,93.21S1.21,160.86,1.21,109.37,43.48,16.14,95.64,16.14s94.47,41.75,94.47,93.23Z"/>
                <path class="cls-40" d="M190.51,108.97c0,51.49-42.29,93.21-94.47,93.21S1.62,160.45,1.62,108.97,43.89,15.74,96.04,15.74s94.47,41.75,94.47,93.23Z"/>
                <path class="cls-22" d="M190.91,108.56c0,51.49-42.29,93.21-94.47,93.21S2.02,160.05,2.02,108.56,44.29,15.34,96.44,15.34s94.47,41.74,94.47,93.23Z"/>
                <path class="cls-117" d="M191.31,108.16c0,51.49-42.29,93.21-94.46,93.21S2.42,159.65,2.42,108.16,44.7,14.93,96.85,14.93s94.46,41.74,94.46,93.23Z"/>
                <path class="cls-30" d="M191.72,107.76c0,51.49-42.29,93.21-94.46,93.21S2.83,159.24,2.83,107.76,45.1,14.53,97.25,14.53s94.46,41.74,94.46,93.23Z"/>
                <path class="cls-61" d="M192.12,107.35c0,51.48-42.29,93.21-94.46,93.21S3.23,158.84,3.23,107.35,45.5,14.13,97.66,14.13s94.46,41.74,94.46,93.22Z"/>
                <path class="cls-54" d="M192.53,106.95c0,51.48-42.29,93.21-94.46,93.21S3.64,158.43,3.64,106.95,45.91,13.72,98.06,13.72s94.46,41.74,94.46,93.22Z"/>
                <path class="cls-121" d="M192.93,106.54c0,51.48-42.29,93.21-94.46,93.21S4.04,158.03,4.04,106.54,46.31,13.32,98.47,13.32s94.46,41.74,94.46,93.22Z"/>
                <path class="cls-8" d="M193.33,106.14c0,51.48-42.29,93.21-94.46,93.21S4.44,157.62,4.44,106.14,46.72,12.92,98.87,12.92s94.46,41.74,94.46,93.22Z"/>
                <path class="cls-51" d="M193.74,105.73c0,51.48-42.29,93.21-94.46,93.21S4.85,157.22,4.85,105.73,47.12,12.51,99.28,12.51s94.46,41.74,94.46,93.22Z"/>
                <path class="cls-37" d="M194.14,105.33c0,51.48-42.29,93.21-94.46,93.21S5.25,156.81,5.25,105.33,47.53,12.11,99.68,12.11s94.46,41.74,94.46,93.22Z"/>
                <path class="cls-132" d="M194.55,104.93c0,51.48-42.29,93.21-94.46,93.21S5.66,156.41,5.66,104.93,47.93,11.71,100.09,11.71s94.46,41.74,94.46,93.22Z"/>
                <path class="cls-17" d="M194.95,104.52c0,51.48-42.29,93.22-94.46,93.22S6.06,156,6.06,104.52,48.34,11.3,100.49,11.3s94.46,41.74,94.46,93.22Z"/>
                <path class="cls-56" d="M195.36,104.12c0,51.48-42.29,93.22-94.46,93.22S6.46,155.6,6.46,104.12,48.74,10.9,100.89,10.9s94.46,41.74,94.46,93.22Z"/>
                <path class="cls-13" d="M195.76,103.71c0,51.48-42.29,93.22-94.46,93.22S6.87,155.2,6.87,103.71,49.15,10.5,101.3,10.5s94.46,41.74,94.46,93.22Z"/>
                <path class="cls-47" d="M196.16,103.31c0,51.48-42.29,93.22-94.46,93.22S7.27,154.79,7.27,103.31,49.55,10.09,101.7,10.09s94.46,41.74,94.46,93.22Z"/>
                <path class="cls-32" d="M196.57,102.91c0,51.48-42.29,93.22-94.46,93.22S7.68,154.39,7.68,102.91,49.95,9.69,102.11,9.69s94.46,41.74,94.46,93.22Z"/>
                <path class="cls-9" d="M196.97,102.5c0,51.48-42.29,93.22-94.46,93.22S8.08,153.98,8.08,102.5,50.36,9.29,102.51,9.29s94.46,41.74,94.46,93.21Z"/>
                <path class="cls-137" d="M197.38,102.1c0,51.48-42.29,93.22-94.46,93.22S8.48,153.58,8.48,102.1,50.76,8.88,102.92,8.88s94.46,41.74,94.46,93.21Z"/>
                <path class="cls-26" d="M197.78,101.69c0,51.48-42.29,93.22-94.46,93.22S8.89,153.17,8.89,101.69,51.17,8.48,103.32,8.48s94.46,41.74,94.46,93.21Z"/>
                <path class="cls-5" d="M198.18,101.29c0,51.48-42.29,93.22-94.46,93.22S9.29,152.77,9.29,101.29,51.57,8.08,103.73,8.08s94.46,41.74,94.46,93.21Z"/>
                <path class="cls-3" d="M198.59,100.88c0,51.48-42.29,93.22-94.46,93.22S9.7,152.36,9.7,100.88,51.98,7.67,104.13,7.67s94.46,41.73,94.46,93.21Z"/>
                <path class="cls-125" d="M198.99,100.48c0,51.48-42.29,93.22-94.46,93.22S10.1,151.96,10.1,100.48,52.38,7.27,104.54,7.27s94.46,41.73,94.46,93.21Z"/>
                <path class="cls-7" d="M199.4,100.08c0,51.48-42.29,93.22-94.46,93.22S10.5,151.55,10.5,100.08,52.79,6.87,104.94,6.87s94.46,41.73,94.46,93.21Z"/>
                <path class="cls-69" d="M199.8,99.67c0,51.48-42.29,93.22-94.46,93.22S10.91,151.15,10.91,99.67,53.19,6.46,105.35,6.46s94.46,41.73,94.46,93.21Z"/>
                <path class="cls-133" d="M200.21,99.27c0,51.48-42.29,93.22-94.46,93.22S11.31,150.74,11.31,99.27,53.6,6.06,105.75,6.06s94.46,41.73,94.46,93.21Z"/>
                <path class="cls-60" d="M200.61,98.86c0,51.48-42.29,93.22-94.45,93.22S11.72,150.34,11.72,98.86,54,5.66,106.15,5.66s94.45,41.73,94.45,93.21Z"/>
                <path class="cls-49" d="M201.01,98.46c0,51.48-42.29,93.22-94.45,93.22S12.12,149.94,12.12,98.46,54.41,5.25,106.56,5.25s94.45,41.73,94.45,93.21Z"/>
                <path class="cls-43" d="M201.42,98.05c0,51.48-42.29,93.22-94.45,93.22S12.52,149.53,12.52,98.05,54.81,4.85,106.96,4.85s94.45,41.73,94.45,93.21Z"/>
                <path class="cls-42" d="M201.82,97.65c0,51.48-42.29,93.22-94.45,93.22S12.93,149.13,12.93,97.65,55.21,4.45,107.37,4.45s94.45,41.73,94.45,93.21Z"/>
                <path class="cls-2" d="M202.23,97.25c0,51.48-42.29,93.22-94.45,93.22S13.33,148.72,13.33,97.25,55.62,4.04,107.77,4.04s94.45,41.73,94.45,93.2Z"/>
                <path class="cls-73" d="M202.63,96.84c0,51.48-42.29,93.22-94.45,93.22S13.74,148.32,13.74,96.84,56.02,3.64,108.18,3.64s94.45,41.73,94.45,93.2Z"/>
                <path class="cls-46" d="M203.03,96.44c0,51.47-42.29,93.22-94.45,93.22S14.14,147.91,14.14,96.44,56.43,3.24,108.58,3.24s94.45,41.73,94.45,93.2Z"/>
                <path class="cls-53" d="M203.44,96.03c0,51.47-42.29,93.22-94.45,93.22S14.54,147.51,14.54,96.03,56.83,2.83,108.99,2.83s94.45,41.73,94.45,93.2Z"/>
                <path class="cls-63" d="M203.84,95.63c0,51.47-42.29,93.22-94.45,93.22S14.95,147.1,14.95,95.63,57.24,2.43,109.39,2.43s94.45,41.73,94.45,93.2Z"/>
                <path class="cls-120" d="M204.25,95.23c0,51.47-42.29,93.22-94.45,93.22S15.35,146.7,15.35,95.23,57.64,2.03,109.8,2.03s94.45,41.73,94.45,93.2Z"/>
                <path class="cls-38" d="M204.65,94.82c0,51.47-42.29,93.22-94.45,93.22S15.76,146.29,15.76,94.82,58.05,1.62,110.2,1.62s94.45,41.73,94.45,93.2Z"/>
                <path class="cls-20" d="M205.05,94.42c0,51.47-42.29,93.22-94.45,93.22S16.16,145.89,16.16,94.42,58.45,1.22,110.6,1.22s94.45,41.73,94.45,93.2Z"/>
                <path class="cls-118" d="M205.46,94.01c0,51.47-42.29,93.22-94.45,93.22S16.56,145.49,16.56,94.01,58.86.81,111.01.81s94.45,41.73,94.45,93.2Z"/>
              </g>
              <path class="cls-139" d="M204.62,94.83c0,51.47-42.27,93.22-94.43,93.22S15.72,146.3,15.72,94.83,57.99,1.63,110.19,1.63s94.43,41.72,94.43,93.2Z"/>
              <path class="cls-115" d="M206.28,93.2c0,51.47-42.27,93.2-94.43,93.2S17.38,144.67,17.38,93.2,59.65,0,111.85,0s94.43,41.73,94.43,93.2Z"/>
              <path class="cls-71" d="M205.46,94.01c0,51.47-42.29,93.22-94.45,93.22S16.56,145.49,16.56,94.01,58.86.81,111.01.81s94.45,41.73,94.45,93.2Z"/>
            </g>
            <g>
              <g class="cls-44">
                <g class="cls-64">
                  <path class="cls-58" d="M158.32,122.36c0,42.9-34.79,77.69-77.72,77.69S2.86,165.26,2.86,122.36,37.68,44.63,80.6,44.63s77.72,34.77,77.72,77.73Z"/>
                </g>
                <g class="cls-114">
                  <path class="cls-129" d="M159.03,121.68c0,42.9-34.79,77.69-77.72,77.69S3.57,164.58,3.57,121.68,38.38,43.95,81.3,43.95s77.72,34.77,77.72,77.73Z"/>
                </g>
                <g class="cls-112">
                  <path class="cls-29" d="M159.73,121.01c0,42.9-34.79,77.69-77.72,77.69S4.27,163.91,4.27,121.01,39.08,43.28,82.01,43.28s77.72,34.77,77.72,77.73Z"/>
                </g>
                <g class="cls-113">
                  <path class="cls-21" d="M160.44,120.34c0,42.9-34.79,77.69-77.73,77.69S4.98,163.23,4.98,120.34,39.79,42.61,82.71,42.61s77.73,34.77,77.73,77.73Z"/>
                </g>
                <g class="cls-109">
                  <path class="cls-128" d="M161.14,119.66c0,42.9-34.79,77.69-77.73,77.69S5.68,162.56,5.68,119.66,40.49,41.93,83.42,41.93s77.73,34.77,77.73,77.73Z"/>
                </g>
                <g class="cls-111">
                  <path class="cls-62" d="M161.85,118.99c0,42.9-34.79,77.69-77.73,77.69S6.39,161.89,6.39,118.99,41.2,41.26,84.12,41.26s77.73,34.77,77.73,77.73Z"/>
                </g>
                <g class="cls-110">
                  <path class="cls-122" d="M162.55,118.31c0,42.9-34.79,77.69-77.73,77.69S7.09,161.21,7.09,118.31,41.9,40.58,84.82,40.58s77.73,34.78,77.73,77.73Z"/>
                </g>
                <g class="cls-104">
                  <path class="cls-52" d="M163.25,117.64c0,42.9-34.79,77.69-77.73,77.69S7.8,160.54,7.8,117.64,42.6,39.91,85.53,39.91s77.73,34.78,77.73,77.73Z"/>
                </g>
                <g class="cls-103">
                  <path class="cls-18" d="M163.96,116.97c0,42.9-34.79,77.69-77.73,77.69S8.5,159.86,8.5,116.97,43.31,39.24,86.23,39.24s77.73,34.78,77.73,77.73Z"/>
                </g>
                <g class="cls-102">
                  <path class="cls-16" d="M164.66,116.29c0,42.9-34.79,77.69-77.73,77.69S9.2,159.19,9.2,116.29,44.01,38.56,86.94,38.56s77.73,34.78,77.73,77.73Z"/>
                </g>
                <g class="cls-108">
                  <path class="cls-1" d="M165.37,115.62c0,42.89-34.8,77.69-77.73,77.69S9.91,158.51,9.91,115.62,44.72,37.89,87.64,37.89s77.73,34.78,77.73,77.73Z"/>
                </g>
                <g class="cls-107">
                  <path class="cls-50" d="M166.07,114.95c0,42.89-34.8,77.69-77.73,77.69S10.61,157.84,10.61,114.95,45.42,37.21,88.34,37.21s77.73,34.78,77.73,77.73Z"/>
                </g>
                <g class="cls-106">
                  <path class="cls-10" d="M166.78,114.27c0,42.89-34.8,77.69-77.73,77.69S11.32,157.17,11.32,114.27,46.12,36.54,89.05,36.54s77.73,34.78,77.73,77.73Z"/>
                </g>
                <g class="cls-105">
                  <path class="cls-55" d="M167.48,113.6c0,42.89-34.8,77.69-77.73,77.69S12.02,156.49,12.02,113.6,46.83,35.87,89.75,35.87s77.73,34.78,77.73,77.73Z"/>
                </g>
                <g class="cls-92">
                  <path class="cls-6" d="M168.19,112.93c0,42.89-34.8,77.69-77.73,77.69S12.73,155.82,12.73,112.93,47.53,35.19,90.46,35.19s77.73,34.78,77.73,77.73Z"/>
                </g>
                <g class="cls-91">
                  <path class="cls-126" d="M168.89,112.25c0,42.89-34.8,77.69-77.73,77.69S13.43,155.14,13.43,112.25,48.24,34.52,91.16,34.52s77.73,34.78,77.73,77.73Z"/>
                </g>
                <g class="cls-90">
                  <path class="cls-68" d="M169.6,111.58c0,42.89-34.8,77.69-77.73,77.69S14.13,154.47,14.13,111.58,48.94,33.84,91.86,33.84s77.73,34.78,77.73,77.74Z"/>
                </g>
                <g class="cls-89">
                  <path class="cls-134" d="M170.3,110.91c0,42.89-34.8,77.69-77.73,77.69S14.84,153.8,14.84,110.91,49.64,33.17,92.57,33.17s77.73,34.78,77.73,77.74Z"/>
                </g>
                <g class="cls-88">
                  <path class="cls-48" d="M171,110.23c0,42.89-34.8,77.69-77.73,77.69S15.54,153.12,15.54,110.23,50.35,32.5,93.27,32.5s77.73,34.78,77.73,77.74Z"/>
                </g>
                <g class="cls-101">
                  <path class="cls-41" d="M171.71,109.56c0,42.89-34.8,77.69-77.73,77.69S16.25,152.45,16.25,109.56,51.05,31.82,93.98,31.82s77.73,34.78,77.73,77.74Z"/>
                </g>
                <g class="cls-100">
                  <path class="cls-27" d="M172.41,108.88c0,42.89-34.8,77.69-77.73,77.69S16.95,151.77,16.95,108.88,51.76,31.15,94.68,31.15s77.73,34.78,77.73,77.74Z"/>
                </g>
                <g class="cls-99">
                  <path class="cls-45" d="M173.12,108.21c0,42.89-34.8,77.69-77.73,77.69S17.66,151.1,17.66,108.21,52.46,30.47,95.38,30.47s77.73,34.78,77.73,77.74Z"/>
                </g>
                <g class="cls-98">
                  <path class="cls-72" d="M173.82,107.54c0,42.89-34.8,77.69-77.73,77.69S18.36,150.43,18.36,107.54,53.16,29.8,96.09,29.8s77.73,34.78,77.73,77.74Z"/>
                </g>
                <g class="cls-97">
                  <path class="cls-74" d="M174.53,106.86c0,42.89-34.8,77.69-77.73,77.69S19.06,149.75,19.06,106.86,53.87,29.13,96.79,29.13s77.73,34.78,77.73,77.74Z"/>
                </g>
                <g class="cls-96">
                  <path class="cls-19" d="M175.23,106.19c0,42.89-34.8,77.69-77.74,77.69S19.77,149.08,19.77,106.19,54.57,28.45,97.5,28.45s77.74,34.78,77.74,77.74Z"/>
                </g>
                <g class="cls-94">
                  <path class="cls-138" d="M175.94,105.52c0,42.89-34.8,77.69-77.74,77.69S20.47,148.4,20.47,105.52,55.28,27.78,98.2,27.78s77.74,34.78,77.74,77.74Z"/>
                </g>
                <g class="cls-95">
                  <path class="cls-130" d="M176.64,104.84c0,42.89-34.8,77.69-77.74,77.69S21.18,147.73,21.18,104.84,55.98,27.1,98.9,27.1s77.74,34.78,77.74,77.74Z"/>
                </g>
                <g class="cls-93">
                  <path class="cls-119" d="M177.35,104.17c0,42.88-34.8,77.69-77.74,77.69S21.88,147.05,21.88,104.17,56.68,26.43,99.61,26.43s77.74,34.78,77.74,77.74Z"/>
                </g>
                <g class="cls-84">
                  <path class="cls-131" d="M178.05,103.5c0,42.88-34.81,77.69-77.74,77.69S22.59,146.38,22.59,103.5,57.39,25.76,100.31,25.76s77.74,34.78,77.74,77.74Z"/>
                </g>
                <g class="cls-82">
                  <path class="cls-24" d="M178.75,102.82c0,42.88-34.81,77.69-77.74,77.69S23.29,145.71,23.29,102.82,58.09,25.08,101.02,25.08s77.74,34.79,77.74,77.74Z"/>
                </g>
                <g class="cls-83">
                  <path class="cls-116" d="M179.46,102.15c0,42.88-34.81,77.7-77.74,77.7S24,145.03,24,102.15,58.8,24.41,101.72,24.41s77.74,34.79,77.74,77.74Z"/>
                </g>
                <g class="cls-81">
                  <path class="cls-70" d="M180.16,101.48c0,42.88-34.81,77.7-77.74,77.7S24.7,144.36,24.7,101.48,59.5,23.73,102.42,23.73s77.74,34.79,77.74,77.74Z"/>
                </g>
                <g class="cls-80">
                  <path class="cls-15" d="M180.87,100.8c0,42.88-34.81,77.7-77.74,77.7S25.4,143.68,25.4,100.8,60.2,23.06,103.13,23.06s77.74,34.79,77.74,77.74Z"/>
                </g>
                <g class="cls-79">
                  <path class="cls-136" d="M181.57,100.13c0,42.88-34.81,77.7-77.74,77.7S26.11,143.01,26.11,100.13,60.91,22.39,103.83,22.39s77.74,34.79,77.74,77.74Z"/>
                </g>
                <g class="cls-77">
                  <path class="cls-25" d="M182.28,99.45c0,42.88-34.81,77.7-77.74,77.7S26.81,142.34,26.81,99.45,61.61,21.71,104.54,21.71s77.74,34.79,77.74,77.74Z"/>
                </g>
                <g class="cls-78">
                  <path class="cls-11" d="M182.98,98.78c0,42.88-34.81,77.7-77.74,77.7S27.52,141.66,27.52,98.78,62.32,21.04,105.24,21.04s77.74,34.79,77.74,77.74Z"/>
                </g>
                <g class="cls-76">
                  <path class="cls-12" d="M183.69,98.11c0,42.88-34.81,77.7-77.74,77.7S28.22,140.99,28.22,98.11,63.02,20.36,105.94,20.36s77.74,34.79,77.74,77.74Z"/>
                </g>
                <g class="cls-75">
                  <path class="cls-127" d="M184.39,97.43c0,42.88-34.81,77.7-77.74,77.7S28.93,140.31,28.93,97.43,63.72,19.69,106.65,19.69s77.74,34.79,77.74,77.74Z"/>
                </g>
                <g class="cls-86">
                  <path class="cls-135" d="M185.09,96.76c0,42.88-34.81,77.7-77.74,77.7S29.63,139.64,29.63,96.76,64.43,19.02,107.35,19.02s77.74,34.79,77.74,77.74Z"/>
                </g>
                <g class="cls-87">
                  <path class="cls-23" d="M185.8,96.09c0,42.88-34.81,77.7-77.74,77.7S30.33,138.96,30.33,96.09,65.13,18.34,108.06,18.34s77.74,34.79,77.74,77.74Z"/>
                </g>
                <g class="cls-85">
                  <path class="cls-123" d="M186.5,95.41c0,42.88-34.81,77.7-77.74,77.7S31.04,138.29,31.04,95.41,65.84,17.67,108.76,17.67s77.74,34.79,77.74,77.75Z"/>
                </g>
                <path class="cls-14" d="M187.21,94.74c0,42.88-34.81,77.7-77.74,77.7S31.74,137.62,31.74,94.74,66.54,16.99,109.46,16.99s77.74,34.79,77.74,77.75Z"/>
              </g>
              <path class="cls-18" d="M188.53,94.74c0,42.88-34.84,77.7-77.75,77.7s-77.74-34.82-77.74-77.7S67.85,16.99,110.78,16.99s77.75,34.79,77.75,77.75Z"/>
              <path class="cls-58" d="M189.85,93.4c0,42.95-34.8,77.72-77.74,77.72s-77.72-34.77-77.72-77.72S69.17,15.65,112.1,15.65s77.74,34.84,77.74,77.75Z"/>
              <path class="cls-31" d="M188.53,94.74c0,42.88-34.84,77.7-77.75,77.7s-77.74-34.82-77.74-77.7S67.85,16.99,110.78,16.99s77.75,34.79,77.75,77.75Z"/>
            </g>
          </g>
          <g>
            <path class="cls-67" d="M61.08,95.93h5.43v1.37h-5.62c-.69,4.14-2.41,6.8-6.5,9.27l-.69-.91c2.96-2.8,4.06-5.08,4.47-8.37h-5.24v-1.37h5.38c.08-1.21.11-2.58.11-4.12h-4.36v-1.34h4.36v-3.43c-1.54.25-3.24.44-5.05.58l-.25-1.15c2.14-.44,3.84-.88,5.29-1.32v-4.42h2.85v3.35c.99-.41,1.89-.88,2.77-1.37l2.25,2.3c-1.4.55-3.07,1.07-5.02,1.48v3.98h4.53v1.34h-4.53c-.03,1.51-.08,2.88-.19,4.12ZM70.32,101.09l.3-1.1c2.72.58,3.13-.08,3.04-2.19-.11-2.17-1.02-4.58-2.39-6.67.71-2.44,1.32-5.08,1.62-7.54h-3.29v22.74h-2.77v-24.88l2.66.74h3.26l.74-.52,2.58,1.1c-1.18,3.62-2.19,5.87-3.51,8.26,2,2.3,3.59,4.5,3.95,7.13.55,4.47-2.96,5.13-6.2,2.94Z"/>
            <path class="cls-67" d="M91.66,97.14l.52.96c-2.22,1.92-4.86,3.73-7.08,4.75l-1.23-2.99c.99-.22,1.89-.44,2.74-.71v-7.02h-2.14v-1.37h2.14v-6.69h-2.33v-1.4h7.41v1.4h-2.36v6.69h2.22v1.37h-2.22v6.06c.74-.3,1.51-.66,2.33-1.04ZM97.48,89.32h2.85v1.37h-9.05v-1.37h2.33c-.25-1.21-.52-2.41-.88-3.51l.93-.36c.77.96,1.43,2.11,1.97,3.32l-1.48.55h2.17c.38-1.23.63-2.58.85-4.01h-5.27v-1.37h3.59c-.69-.93-1.4-1.84-2.08-2.63l.58-.74c1.23.58,2.55,1.4,3.62,2.36l-.99,1.02h3.43v1.37h-2.03l1.43.55c-.52,1.12-1.29,2.5-1.97,3.46ZM99.56,92.09v11.71c0,2.42-2.28,3.32-4.75,1.02l.38-.99c1.56.55,1.95.52,1.95-.44v-2.85h-2.55v5.65h-2.42v-14.1h7.38ZM94.6,95.66h2.55v-2.22h-2.55v2.22ZM94.6,99.25h2.55v-2.33h-2.55v2.33ZM106.37,105.67c-.91.05-1.76.03-2.69,0-2.42-.11-3.05-.69-3.05-2.8v-12.51h4.2v-2.36h-4.17v-7.16h2.5v2.58h5.1v1.37h-5.1v1.89h4.12v4.99h-4.14v1.67h3.9v1.29h-3.9v1.65h3.92v1.29h-3.92v1.7h3.98v1.32h-3.98v1.7c0,1.1.22,1.23,2.11,1.23s2.11-.33,2.06-2.8h.99c1.07,3.04.82,4.8-1.92,4.94Z"/>
            <path class="cls-67" d="M140.54,102.44l-.93,3.18c-2.28.16-4.99.25-7.49.16-5.1-.16-8.94-.99-11.52-3.51-1.18,1.7-2.66,3.13-4.42,4.23l-.69-.93c1.32-1.1,2.66-2.63,3.79-4.88-1.04-1.56-1.78-3.57-2.25-6.15l1.1-.33c.52,1.87,1.18,3.35,1.98,4.53.69-1.87,1.23-4.17,1.51-6.94h-2.19c-.41.74-.8,1.34-1.1,1.78l-2.2-.88c1.34-2.22,3.13-5.76,4.25-8.72h-4.36v-1.34h7.76c-.8,2.14-2.28,5.32-3.62,7.82h1.34l.63-.47,2.3.85c-.41,3.7-1.29,7-2.77,9.71,2.36,2,5.68,2.5,10.29,2.5,3.02-.03,5.98-.3,8.59-.6ZM129.73,88h-5.82v-1.32h5.82v-2.14h-4.5v-1.34h4.5v-2.36h2.69v2.36h5.29v3.48h2.25v1.32h-2.25v3.65h-5.29v2.03h5.46v1.37h-5.46v2.3h6.75v1.37h-6.75v3.43h-2.69v-3.43h-5.82v-1.37h5.82v-2.3h-4.83v-1.37h4.83v-2.03h-4.58v-1.37h4.58v-2.28ZM132.42,86.69h2.83v-2.14h-2.83v2.14ZM132.42,90.28h2.83v-2.28h-2.83v2.28Z"/>
            <path class="cls-67" d="M157.96,87.04h-10.59v-1.43h4.91c-.79-1.59-1.78-3.35-2.41-4.36l.82-.71c1.32.93,3.04,2.69,4.09,4.14l-1.34.93h4.53v1.43ZM148.33,90.8v-1.37h8.59v1.37h-8.59ZM156.92,94.62h-8.59v-1.4h8.59v1.4ZM157.08,104.16h-6.12v1.92h-2.58v-8.97h8.7v7.05ZM154.53,98.48h-3.57v4.28h3.57v-4.28ZM170.52,106.22c-2.52-.74-4.66-1.95-6.37-3.51-1.98,1.62-4.44,2.96-7.54,3.81l-.44-1.04c2.8-1.12,4.94-2.66,6.53-4.31-1.54-1.89-2.61-4.14-3.16-6.67h-1.54v-1.4h8.37l.8-.52,2.72,1.21c-.79,2.58-2.03,4.99-3.87,7.08,1.98,1.18,4.12,1.78,5.98,2.2l-1.48,3.16ZM157,91.82c2.22-1.81,2.74-2.72,2.74-6.91v-2.55h7.96v5.62c0,.85.11,1.18,1.04,1.18.82,0,1.26-.08,1.95-.71l1.18,2.03c-.77.77-1.89,1.1-3.76,1.1-2.52,0-3.13-.71-3.13-3.05v-4.77h-2.5v1.26c0,4.47-1.73,6.31-4.88,7.74l-.6-.93ZM164.1,99.5c1.23-1.67,1.97-3.4,2.41-4.99h-5.73c.77,2.17,1.95,3.79,3.32,4.99Z"/>
          </g>
        </g>
        <g>
          <rect class="cls-36" x="249.73" y="80.06" width="22.23" height="22.23" rx="10.75" ry="10.75"/>
          <path class="cls-124" d="M261.22,103.29h-.74c-6.48,0-11.75-5.27-11.75-11.75v-.74c0-6.48,5.27-11.75,11.75-11.75h.74c6.48,0,11.75,5.27,11.75,11.75v.74c0,6.48-5.27,11.75-11.75,11.75ZM260.48,81.06c-5.38,0-9.75,4.37-9.75,9.75v.74c0,5.38,4.37,9.75,9.75,9.75h.74c5.38,0,9.75-4.37,9.75-9.75v-.74c0-5.38-4.37-9.75-9.75-9.75h-.74Z"/>
        </g>
        <rect class="cls-124" x="475.73" y="89.83" width="145.85" height="4"/>
        <g>
          <rect class="cls-34" x="542.43" y="80.06" width="22.23" height="22.23" rx="10.75" ry="10.75"/>
          <path class="cls-124" d="M553.91,103.29h-.74c-6.48,0-11.75-5.27-11.75-11.75v-.74c0-6.48,5.27-11.75,11.75-11.75h.74c6.48,0,11.75,5.27,11.75,11.75v.74c0,6.48-5.27,11.75-11.75,11.75ZM553.18,81.06c-5.38,0-9.75,4.37-9.75,9.75v.74c0,5.38,4.37,9.75,9.75,9.75h.74c5.38,0,9.75-4.37,9.75-9.75v-.74c0-5.38-4.37-9.75-9.75-9.75h-.74Z"/>
        </g>
        <g>
          <g>
            <g>
              <g class="cls-44">
                <path class="cls-59" d="M485.53,110.59c0,51.49-42.29,93.21-94.47,93.21s-94.42-41.72-94.42-93.21,42.27-93.23,94.42-93.23,94.47,41.75,94.47,93.23Z"/>
                <path class="cls-57" d="M485.93,110.18c0,51.49-42.29,93.21-94.47,93.21s-94.42-41.72-94.42-93.21,42.27-93.23,94.42-93.23,94.47,41.75,94.47,93.23Z"/>
                <path class="cls-4" d="M486.34,109.78c0,51.49-42.29,93.21-94.47,93.21s-94.42-41.72-94.42-93.21,42.27-93.23,94.42-93.23,94.47,41.75,94.47,93.23Z"/>
                <path class="cls-28" d="M486.74,109.37c0,51.49-42.29,93.21-94.47,93.21s-94.42-41.73-94.42-93.21,42.27-93.23,94.42-93.23,94.47,41.75,94.47,93.23Z"/>
                <path class="cls-40" d="M487.15,108.97c0,51.49-42.29,93.21-94.47,93.21s-94.42-41.73-94.42-93.21S340.53,15.74,392.68,15.74s94.47,41.75,94.47,93.23Z"/>
                <path class="cls-22" d="M487.55,108.56c0,51.49-42.29,93.21-94.47,93.21s-94.42-41.73-94.42-93.21S340.93,15.34,393.08,15.34s94.47,41.74,94.47,93.23Z"/>
                <path class="cls-117" d="M487.95,108.16c0,51.49-42.29,93.21-94.46,93.21s-94.42-41.73-94.42-93.21S341.34,14.93,393.49,14.93s94.46,41.74,94.46,93.23Z"/>
                <path class="cls-30" d="M488.36,107.76c0,51.49-42.29,93.21-94.46,93.21s-94.43-41.73-94.43-93.21S341.74,14.53,393.89,14.53s94.46,41.74,94.46,93.23Z"/>
                <path class="cls-61" d="M488.76,107.35c0,51.48-42.29,93.21-94.46,93.21s-94.43-41.73-94.43-93.21S342.14,14.13,394.3,14.13s94.46,41.74,94.46,93.22Z"/>
                <path class="cls-54" d="M489.17,106.95c0,51.48-42.29,93.21-94.46,93.21s-94.43-41.73-94.43-93.21S342.55,13.72,394.7,13.72s94.46,41.74,94.46,93.22Z"/>
                <path class="cls-121" d="M489.57,106.54c0,51.48-42.29,93.21-94.46,93.21s-94.43-41.73-94.43-93.21S342.95,13.32,395.11,13.32s94.46,41.74,94.46,93.22Z"/>
                <path class="cls-8" d="M489.97,106.14c0,51.48-42.29,93.21-94.46,93.21s-94.43-41.73-94.43-93.21S343.36,12.92,395.51,12.92s94.46,41.74,94.46,93.22Z"/>
                <path class="cls-51" d="M490.38,105.73c0,51.48-42.29,93.21-94.46,93.21s-94.43-41.73-94.43-93.21S343.76,12.51,395.92,12.51s94.46,41.74,94.46,93.22Z"/>
                <path class="cls-37" d="M490.78,105.33c0,51.48-42.29,93.21-94.46,93.21s-94.43-41.73-94.43-93.21S344.17,12.11,396.32,12.11s94.46,41.74,94.46,93.22Z"/>
                <path class="cls-132" d="M491.19,104.93c0,51.48-42.29,93.21-94.46,93.21s-94.43-41.73-94.43-93.21S344.57,11.71,396.73,11.71s94.46,41.74,94.46,93.22Z"/>
                <path class="cls-17" d="M491.59,104.52c0,51.48-42.29,93.22-94.46,93.22s-94.43-41.73-94.43-93.22S344.98,11.3,397.13,11.3s94.46,41.74,94.46,93.22Z"/>
                <path class="cls-56" d="M492,104.12c0,51.48-42.29,93.22-94.46,93.22s-94.43-41.73-94.43-93.22S345.38,10.9,397.53,10.9s94.46,41.74,94.46,93.22Z"/>
                <path class="cls-13" d="M492.4,103.71c0,51.48-42.29,93.22-94.46,93.22s-94.43-41.73-94.43-93.22S345.79,10.5,397.94,10.5s94.46,41.74,94.46,93.22Z"/>
                <path class="cls-47" d="M492.8,103.31c0,51.48-42.29,93.22-94.46,93.22s-94.43-41.73-94.43-93.22S346.19,10.09,398.34,10.09s94.46,41.74,94.46,93.22Z"/>
                <path class="cls-32" d="M493.21,102.91c0,51.48-42.29,93.22-94.46,93.22s-94.43-41.74-94.43-93.22S346.59,9.69,398.75,9.69s94.46,41.74,94.46,93.22Z"/>
                <path class="cls-9" d="M493.61,102.5c0,51.48-42.29,93.22-94.46,93.22s-94.43-41.74-94.43-93.22S347,9.29,399.15,9.29s94.46,41.74,94.46,93.21Z"/>
                <path class="cls-137" d="M494.02,102.1c0,51.48-42.29,93.22-94.46,93.22s-94.43-41.74-94.43-93.22S347.4,8.88,399.56,8.88s94.46,41.74,94.46,93.21Z"/>
                <path class="cls-26" d="M494.42,101.69c0,51.48-42.29,93.22-94.46,93.22s-94.43-41.74-94.43-93.22S347.81,8.48,399.96,8.48s94.46,41.74,94.46,93.21Z"/>
                <path class="cls-5" d="M494.82,101.29c0,51.48-42.29,93.22-94.46,93.22s-94.44-41.74-94.44-93.22S348.21,8.08,400.37,8.08s94.46,41.74,94.46,93.21Z"/>
                <path class="cls-3" d="M495.23,100.88c0,51.48-42.29,93.22-94.46,93.22s-94.44-41.74-94.44-93.22S348.62,7.67,400.77,7.67s94.46,41.73,94.46,93.21Z"/>
                <path class="cls-125" d="M495.63,100.48c0,51.48-42.29,93.22-94.46,93.22s-94.44-41.74-94.44-93.22S349.02,7.27,401.18,7.27s94.46,41.73,94.46,93.21Z"/>
                <path class="cls-7" d="M496.04,100.08c0,51.48-42.29,93.22-94.46,93.22s-94.44-41.74-94.44-93.22S349.43,6.87,401.58,6.87s94.46,41.73,94.46,93.21Z"/>
                <path class="cls-69" d="M496.44,99.67c0,51.48-42.29,93.22-94.46,93.22s-94.44-41.74-94.44-93.22S349.83,6.46,401.99,6.46s94.46,41.73,94.46,93.21Z"/>
                <path class="cls-133" d="M496.85,99.27c0,51.48-42.29,93.22-94.46,93.22s-94.44-41.74-94.44-93.22S350.24,6.06,402.39,6.06s94.46,41.73,94.46,93.21Z"/>
                <path class="cls-60" d="M497.25,98.86c0,51.48-42.29,93.22-94.45,93.22s-94.44-41.74-94.44-93.22S350.64,5.66,402.79,5.66s94.45,41.73,94.45,93.21Z"/>
                <path class="cls-49" d="M497.65,98.46c0,51.48-42.29,93.22-94.45,93.22s-94.44-41.74-94.44-93.22S351.05,5.25,403.2,5.25s94.45,41.73,94.45,93.21Z"/>
                <path class="cls-43" d="M498.06,98.05c0,51.48-42.29,93.22-94.45,93.22s-94.44-41.74-94.44-93.22S351.45,4.85,403.6,4.85s94.45,41.73,94.45,93.21Z"/>
                <path class="cls-42" d="M498.46,97.65c0,51.48-42.29,93.22-94.45,93.22s-94.44-41.74-94.44-93.22S351.85,4.45,404.01,4.45s94.45,41.73,94.45,93.21Z"/>
                <path class="cls-2" d="M498.87,97.25c0,51.48-42.29,93.22-94.45,93.22s-94.44-41.74-94.44-93.22S352.26,4.04,404.41,4.04s94.45,41.73,94.45,93.2Z"/>
                <path class="cls-73" d="M499.27,96.84c0,51.48-42.29,93.22-94.45,93.22s-94.44-41.74-94.44-93.22S352.66,3.64,404.82,3.64s94.45,41.73,94.45,93.2Z"/>
                <path class="cls-46" d="M499.67,96.44c0,51.47-42.29,93.22-94.45,93.22s-94.44-41.75-94.44-93.22S353.07,3.24,405.22,3.24s94.45,41.73,94.45,93.2Z"/>
                <path class="cls-53" d="M500.08,96.03c0,51.47-42.29,93.22-94.45,93.22s-94.44-41.75-94.44-93.22S353.47,2.83,405.63,2.83s94.45,41.73,94.45,93.2Z"/>
                <path class="cls-63" d="M500.48,95.63c0,51.47-42.29,93.22-94.45,93.22s-94.44-41.75-94.44-93.22S353.88,2.43,406.03,2.43s94.45,41.73,94.45,93.2Z"/>
                <path class="cls-120" d="M500.89,95.23c0,51.47-42.29,93.22-94.45,93.22s-94.44-41.75-94.44-93.22S354.28,2.03,406.44,2.03s94.45,41.73,94.45,93.2Z"/>
                <path class="cls-38" d="M501.29,94.82c0,51.47-42.29,93.22-94.45,93.22s-94.44-41.75-94.44-93.22S354.69,1.62,406.84,1.62s94.45,41.73,94.45,93.2Z"/>
                <path class="cls-20" d="M501.69,94.42c0,51.47-42.29,93.22-94.45,93.22s-94.45-41.75-94.45-93.22S355.09,1.22,407.24,1.22s94.45,41.73,94.45,93.2Z"/>
                <path class="cls-118" d="M502.1,94.01c0,51.47-42.29,93.22-94.45,93.22s-94.45-41.75-94.45-93.22S355.5.81,407.65.81s94.45,41.73,94.45,93.2Z"/>
              </g>
              <path class="cls-139" d="M501.26,94.83c0,51.47-42.27,93.22-94.43,93.22s-94.47-41.75-94.47-93.22S354.63,1.63,406.83,1.63s94.43,41.72,94.43,93.2Z"/>
              <path class="cls-115" d="M502.92,93.2c0,51.47-42.27,93.2-94.43,93.2s-94.47-41.73-94.47-93.2S356.29,0,408.49,0s94.43,41.73,94.43,93.2Z"/>
              <path class="cls-66" d="M502.1,94.01c0,51.47-42.29,93.22-94.45,93.22s-94.45-41.75-94.45-93.22S355.5.81,407.65.81s94.45,41.73,94.45,93.2Z"/>
            </g>
            <g>
              <g class="cls-44">
                <g class="cls-64">
                  <path class="cls-58" d="M454.96,122.36c0,42.9-34.79,77.69-77.72,77.69s-77.73-34.79-77.73-77.69,34.81-77.73,77.73-77.73,77.72,34.77,77.72,77.73Z"/>
                </g>
                <g class="cls-114">
                  <path class="cls-129" d="M455.67,121.68c0,42.9-34.79,77.69-77.72,77.69s-77.73-34.79-77.73-77.69,34.81-77.73,77.73-77.73,77.72,34.77,77.72,77.73Z"/>
                </g>
                <g class="cls-112">
                  <path class="cls-29" d="M456.37,121.01c0,42.9-34.79,77.69-77.72,77.69s-77.73-34.79-77.73-77.69,34.81-77.73,77.73-77.73,77.72,34.77,77.72,77.73Z"/>
                </g>
                <g class="cls-113">
                  <path class="cls-21" d="M457.08,120.34c0,42.9-34.79,77.69-77.73,77.69s-77.73-34.79-77.73-77.69,34.81-77.73,77.73-77.73,77.73,34.77,77.73,77.73Z"/>
                </g>
                <g class="cls-109">
                  <path class="cls-128" d="M457.78,119.66c0,42.9-34.79,77.69-77.73,77.69s-77.73-34.79-77.73-77.69,34.81-77.73,77.73-77.73,77.73,34.77,77.73,77.73Z"/>
                </g>
                <g class="cls-111">
                  <path class="cls-62" d="M458.49,118.99c0,42.9-34.79,77.69-77.73,77.69s-77.73-34.79-77.73-77.69,34.81-77.73,77.73-77.73,77.73,34.77,77.73,77.73Z"/>
                </g>
                <g class="cls-110">
                  <path class="cls-122" d="M459.19,118.31c0,42.9-34.79,77.69-77.73,77.69s-77.73-34.79-77.73-77.69,34.81-77.73,77.73-77.73,77.73,34.78,77.73,77.73Z"/>
                </g>
                <g class="cls-104">
                  <path class="cls-52" d="M459.89,117.64c0,42.9-34.79,77.69-77.73,77.69s-77.73-34.79-77.73-77.69,34.81-77.73,77.73-77.73,77.73,34.78,77.73,77.73Z"/>
                </g>
                <g class="cls-103">
                  <path class="cls-18" d="M460.6,116.97c0,42.9-34.79,77.69-77.73,77.69s-77.73-34.79-77.73-77.69,34.81-77.73,77.73-77.73,77.73,34.78,77.73,77.73Z"/>
                </g>
                <g class="cls-102">
                  <path class="cls-16" d="M461.3,116.29c0,42.9-34.79,77.69-77.73,77.69s-77.73-34.8-77.73-77.69,34.81-77.73,77.73-77.73,77.73,34.78,77.73,77.73Z"/>
                </g>
                <g class="cls-108">
                  <path class="cls-1" d="M462.01,115.62c0,42.89-34.8,77.69-77.73,77.69s-77.73-34.8-77.73-77.69,34.81-77.73,77.73-77.73,77.73,34.78,77.73,77.73Z"/>
                </g>
                <g class="cls-107">
                  <path class="cls-50" d="M462.71,114.95c0,42.89-34.8,77.69-77.73,77.69s-77.73-34.8-77.73-77.69,34.81-77.73,77.73-77.73,77.73,34.78,77.73,77.73Z"/>
                </g>
                <g class="cls-106">
                  <path class="cls-10" d="M463.42,114.27c0,42.89-34.8,77.69-77.73,77.69s-77.73-34.8-77.73-77.69,34.81-77.73,77.73-77.73,77.73,34.78,77.73,77.73Z"/>
                </g>
                <g class="cls-105">
                  <path class="cls-55" d="M464.12,113.6c0,42.89-34.8,77.69-77.73,77.69s-77.73-34.8-77.73-77.69,34.81-77.73,77.73-77.73,77.73,34.78,77.73,77.73Z"/>
                </g>
                <g class="cls-92">
                  <path class="cls-6" d="M464.83,112.93c0,42.89-34.8,77.69-77.73,77.69s-77.73-34.8-77.73-77.69,34.81-77.73,77.73-77.73,77.73,34.78,77.73,77.73Z"/>
                </g>
                <g class="cls-91">
                  <path class="cls-126" d="M465.53,112.25c0,42.89-34.8,77.69-77.73,77.69s-77.73-34.8-77.73-77.69,34.81-77.73,77.73-77.73,77.73,34.78,77.73,77.73Z"/>
                </g>
                <g class="cls-90">
                  <path class="cls-68" d="M466.24,111.58c0,42.89-34.8,77.69-77.73,77.69s-77.73-34.8-77.73-77.69,34.81-77.74,77.73-77.74,77.73,34.78,77.73,77.74Z"/>
                </g>
                <g class="cls-89">
                  <path class="cls-134" d="M466.94,110.91c0,42.89-34.8,77.69-77.73,77.69s-77.73-34.8-77.73-77.69,34.81-77.74,77.73-77.74,77.73,34.78,77.73,77.74Z"/>
                </g>
                <g class="cls-88">
                  <path class="cls-48" d="M467.64,110.23c0,42.89-34.8,77.69-77.73,77.69s-77.73-34.8-77.73-77.69,34.81-77.74,77.73-77.74,77.73,34.78,77.73,77.74Z"/>
                </g>
                <g class="cls-101">
                  <path class="cls-41" d="M468.35,109.56c0,42.89-34.8,77.69-77.73,77.69s-77.73-34.8-77.73-77.69,34.8-77.74,77.73-77.74,77.73,34.78,77.73,77.74Z"/>
                </g>
                <g class="cls-100">
                  <path class="cls-27" d="M469.05,108.88c0,42.89-34.8,77.69-77.73,77.69s-77.73-34.8-77.73-77.69,34.8-77.74,77.73-77.74,77.73,34.78,77.73,77.74Z"/>
                </g>
                <g class="cls-99">
                  <path class="cls-45" d="M469.76,108.21c0,42.89-34.8,77.69-77.73,77.69s-77.73-34.8-77.73-77.69,34.8-77.74,77.73-77.74,77.73,34.78,77.73,77.74Z"/>
                </g>
                <g class="cls-98">
                  <path class="cls-72" d="M470.46,107.54c0,42.89-34.8,77.69-77.73,77.69s-77.73-34.81-77.73-77.69,34.8-77.74,77.73-77.74,77.73,34.78,77.73,77.74Z"/>
                </g>
                <g class="cls-97">
                  <path class="cls-74" d="M471.17,106.86c0,42.89-34.8,77.69-77.73,77.69s-77.73-34.81-77.73-77.69,34.8-77.74,77.73-77.74,77.73,34.78,77.73,77.74Z"/>
                </g>
                <g class="cls-96">
                  <path class="cls-19" d="M471.87,106.19c0,42.89-34.8,77.69-77.74,77.69s-77.73-34.81-77.73-77.69,34.8-77.74,77.73-77.74,77.74,34.78,77.74,77.74Z"/>
                </g>
                <g class="cls-94">
                  <path class="cls-138" d="M472.58,105.52c0,42.89-34.8,77.69-77.74,77.69s-77.73-34.81-77.73-77.69,34.8-77.74,77.73-77.74,77.74,34.78,77.74,77.74Z"/>
                </g>
                <g class="cls-95">
                  <path class="cls-130" d="M473.28,104.84c0,42.89-34.8,77.69-77.74,77.69s-77.73-34.81-77.73-77.69,34.8-77.74,77.73-77.74,77.74,34.78,77.74,77.74Z"/>
                </g>
                <g class="cls-93">
                  <path class="cls-119" d="M473.99,104.17c0,42.88-34.8,77.69-77.74,77.69s-77.73-34.81-77.73-77.69,34.8-77.74,77.73-77.74,77.74,34.78,77.74,77.74Z"/>
                </g>
                <g class="cls-84">
                  <path class="cls-131" d="M474.69,103.5c0,42.88-34.81,77.69-77.74,77.69s-77.73-34.81-77.73-77.69,34.8-77.74,77.73-77.74,77.74,34.78,77.74,77.74Z"/>
                </g>
                <g class="cls-82">
                  <path class="cls-24" d="M475.39,102.82c0,42.88-34.81,77.69-77.74,77.69s-77.73-34.81-77.73-77.69,34.8-77.74,77.73-77.74,77.74,34.79,77.74,77.74Z"/>
                </g>
                <g class="cls-83">
                  <path class="cls-116" d="M476.1,102.15c0,42.88-34.81,77.7-77.74,77.7s-77.73-34.81-77.73-77.7,34.8-77.74,77.73-77.74,77.74,34.79,77.74,77.74Z"/>
                </g>
                <g class="cls-81">
                  <path class="cls-70" d="M476.8,101.48c0,42.88-34.81,77.7-77.74,77.7s-77.72-34.81-77.72-77.7,34.8-77.74,77.72-77.74,77.74,34.79,77.74,77.74Z"/>
                </g>
                <g class="cls-80">
                  <path class="cls-15" d="M477.51,100.8c0,42.88-34.81,77.7-77.74,77.7s-77.72-34.81-77.72-77.7,34.8-77.74,77.72-77.74,77.74,34.79,77.74,77.74Z"/>
                </g>
                <g class="cls-79">
                  <path class="cls-136" d="M478.21,100.13c0,42.88-34.81,77.7-77.74,77.7s-77.72-34.81-77.72-77.7,34.8-77.74,77.72-77.74,77.74,34.79,77.74,77.74Z"/>
                </g>
                <g class="cls-77">
                  <path class="cls-25" d="M478.92,99.45c0,42.88-34.81,77.7-77.74,77.7s-77.72-34.82-77.72-77.7,34.8-77.74,77.72-77.74,77.74,34.79,77.74,77.74Z"/>
                </g>
                <g class="cls-78">
                  <path class="cls-11" d="M479.62,98.78c0,42.88-34.81,77.7-77.74,77.7s-77.72-34.82-77.72-77.7,34.8-77.74,77.72-77.74,77.74,34.79,77.74,77.74Z"/>
                </g>
                <g class="cls-76">
                  <path class="cls-12" d="M480.33,98.11c0,42.88-34.81,77.7-77.74,77.7s-77.72-34.82-77.72-77.7,34.8-77.74,77.72-77.74,77.74,34.79,77.74,77.74Z"/>
                </g>
                <g class="cls-75">
                  <path class="cls-127" d="M481.03,97.43c0,42.88-34.81,77.7-77.74,77.7s-77.72-34.82-77.72-77.7,34.8-77.74,77.72-77.74,77.74,34.79,77.74,77.74Z"/>
                </g>
                <g class="cls-86">
                  <path class="cls-135" d="M481.73,96.76c0,42.88-34.81,77.7-77.74,77.7s-77.72-34.82-77.72-77.7,34.8-77.74,77.72-77.74,77.74,34.79,77.74,77.74Z"/>
                </g>
                <g class="cls-87">
                  <path class="cls-23" d="M482.44,96.09c0,42.88-34.81,77.7-77.74,77.7s-77.72-34.82-77.72-77.7,34.8-77.74,77.72-77.74,77.74,34.79,77.74,77.74Z"/>
                </g>
                <g class="cls-85">
                  <path class="cls-123" d="M483.14,95.41c0,42.88-34.81,77.7-77.74,77.7s-77.72-34.82-77.72-77.7,34.8-77.75,77.72-77.75,77.74,34.79,77.74,77.75Z"/>
                </g>
                <path class="cls-14" d="M483.85,94.74c0,42.88-34.81,77.7-77.74,77.7s-77.72-34.82-77.72-77.7,34.8-77.75,77.72-77.75,77.74,34.79,77.74,77.75Z"/>
              </g>
              <path class="cls-18" d="M485.17,94.74c0,42.88-34.84,77.7-77.75,77.7s-77.74-34.82-77.74-77.7,34.81-77.75,77.74-77.75,77.75,34.79,77.75,77.75Z"/>
              <path class="cls-58" d="M486.49,93.4c0,42.95-34.8,77.72-77.74,77.72s-77.72-34.77-77.72-77.72S365.81,15.65,408.74,15.65s77.74,34.84,77.74,77.75Z"/>
              <path class="cls-33" d="M485.17,94.74c0,42.88-34.84,77.7-77.75,77.7s-77.74-34.82-77.74-77.7,34.81-77.75,77.74-77.75,77.75,34.79,77.75,77.75Z"/>
            </g>
          </g>
          <g>
            <path class="cls-67" d="M357.72,95.93h5.43v1.37h-5.62c-.69,4.14-2.41,6.8-6.5,9.27l-.69-.91c2.96-2.8,4.06-5.08,4.47-8.37h-5.24v-1.37h5.38c.08-1.21.11-2.58.11-4.12h-4.36v-1.34h4.36v-3.43c-1.54.25-3.24.44-5.05.58l-.25-1.15c2.14-.44,3.84-.88,5.29-1.32v-4.42h2.85v3.35c.99-.41,1.89-.88,2.77-1.37l2.25,2.3c-1.4.55-3.07,1.07-5.02,1.48v3.98h4.53v1.34h-4.53c-.03,1.51-.08,2.88-.19,4.12ZM366.96,101.09l.3-1.1c2.72.58,3.13-.08,3.04-2.19-.11-2.17-1.02-4.58-2.39-6.67.71-2.44,1.32-5.08,1.62-7.54h-3.29v22.74h-2.77v-24.88l2.66.74h3.26l.74-.52,2.58,1.1c-1.18,3.62-2.19,5.87-3.51,8.26,2,2.3,3.59,4.5,3.95,7.13.55,4.47-2.96,5.13-6.2,2.94Z"/>
            <path class="cls-67" d="M388.3,97.14l.52.96c-2.22,1.92-4.86,3.73-7.08,4.75l-1.23-2.99c.99-.22,1.89-.44,2.74-.71v-7.02h-2.14v-1.37h2.14v-6.69h-2.33v-1.4h7.41v1.4h-2.36v6.69h2.22v1.37h-2.22v6.06c.74-.3,1.51-.66,2.33-1.04ZM394.12,89.32h2.85v1.37h-9.05v-1.37h2.33c-.25-1.21-.52-2.41-.88-3.51l.93-.36c.77.96,1.43,2.11,1.97,3.32l-1.48.55h2.17c.38-1.23.63-2.58.85-4.01h-5.27v-1.37h3.59c-.69-.93-1.4-1.84-2.08-2.63l.58-.74c1.23.58,2.55,1.4,3.62,2.36l-.99,1.02h3.43v1.37h-2.03l1.43.55c-.52,1.12-1.29,2.5-1.97,3.46ZM396.2,92.09v11.71c0,2.42-2.28,3.32-4.75,1.02l.38-.99c1.56.55,1.95.52,1.95-.44v-2.85h-2.55v5.65h-2.42v-14.1h7.38ZM391.24,95.66h2.55v-2.22h-2.55v2.22ZM391.24,99.25h2.55v-2.33h-2.55v2.33ZM403.01,105.67c-.91.05-1.76.03-2.69,0-2.42-.11-3.05-.69-3.05-2.8v-12.51h4.2v-2.36h-4.17v-7.16h2.5v2.58h5.1v1.37h-5.1v1.89h4.12v4.99h-4.14v1.67h3.9v1.29h-3.9v1.65h3.92v1.29h-3.92v1.7h3.98v1.32h-3.98v1.7c0,1.1.22,1.23,2.11,1.23s2.11-.33,2.06-2.8h.99c1.07,3.04.82,4.8-1.92,4.94Z"/>
            <path class="cls-67" d="M413.45,89.62l-.27-1.07c4.44-1.15,5.02-3.02,5.08-7.82h2.69c-.03,2.03-.27,3.68-.85,4.97,1.43.44,3.02,1.12,4.31,1.95l-1.4,2.03c-.99-.96-2.28-2.03-3.51-2.88-1.1,1.59-2.99,2.47-6.04,2.83ZM435.89,89.95v4.8h-2.63v-3.43h-17.34v3.48h-2.63v-4.86h22.61ZM415.87,86.08c-.58-1.26-1.32-2.72-2.06-3.81l.82-.66c1.12.82,2.39,2.03,3.13,3.1l-1.89,1.37ZM424.26,99.66h9.79v6.58h-2.69v-1.21h-13.28v1.21h-2.69v-6.58h7.27c.17-.63.27-1.29.38-1.95h-5.73v-4.97h14.6v4.97h-5.95c-.55.71-1.12,1.37-1.7,1.95ZM431.37,100.98h-13.28v2.69h13.28v-2.69ZM419.95,96.37h9.33v-2.28h-9.33v2.28ZM420.83,84.88c.85-1.12,1.48-2.22,2-3.35l1.98,1.34c-.82.96-2.08,2.06-3.29,2.77l-.69-.77ZM426.84,85.92c-.6-1.26-1.32-2.61-1.95-3.57l.77-.69c.96.66,2,1.65,2.77,2.63.11-.99.11-2.11.11-3.51h2.69c0,2-.17,3.68-.69,4.99,1.81.55,3.51,1.32,4.77,2.08l-1.37,2c-1.04-.96-2.47-2.03-3.95-2.99-.96,1.54-2.66,2.5-5.49,2.94l-.3-1.07c2.74-.91,3.76-2.06,4.14-3.92l-1.51,1.1ZM430.93,84.88c.74-.66,1.7-1.81,2.55-3.26l1.89,1.59c-1.02.93-2.47,1.89-3.81,2.5l-.63-.82Z"/>
            <path class="cls-67" d="M468.7,102.3l-.74,3.05c-3.02.22-8.45.25-11.11.11-4-.22-6.15-.88-7.93-4.03-.93,1.7-2.25,3.62-3.68,5.05l-1.73-1.89c1.43-1.04,3.07-2.47,3.87-3.62v-6.17h-3.46v-1.4h6.23v7.27c1.43,2.11,3.29,2.25,6.61,2.3,3.79.08,8.61-.22,11.93-.66ZM448.18,91.52c-.93-1.26-2.61-3.21-3.79-4.44l.63-.93c1.45.66,3.65,1.89,5.13,3.18l-1.97,2.19ZM446.04,81.8l.6-.93c1.43.6,3.73,1.78,5.16,3.02l-1.89,2.17c-1.12-1.43-2.55-2.99-3.87-4.25ZM452.95,89.65l-.88-.63c1.34-2.52,1.78-5.19,2.11-7.76l2.77.52c-.17.85-.49,2.06-1.04,3.29h2.39v-4.31h2.91v4.31h5.16v1.4h-5.16v3.79h6.61v1.4h-16.35v-1.4h6.83v-3.79h-3.04c-.63,1.15-1.4,2.28-2.3,3.18ZM453.36,100.65v-7.22h12.73v7.22h-12.73ZM456.16,99.28h7.16v-4.47h-7.16v4.47Z"/>
          </g>
        </g>
        <g>
          <g>
            <g>
              <g class="cls-44">
                <path class="cls-59" d="M781.32,110.59c0,51.49-42.29,93.21-94.47,93.21s-94.42-41.72-94.42-93.21,42.27-93.23,94.42-93.23,94.47,41.75,94.47,93.23Z"/>
                <path class="cls-57" d="M781.73,110.18c0,51.49-42.29,93.21-94.47,93.21s-94.42-41.72-94.42-93.21,42.27-93.23,94.42-93.23,94.47,41.75,94.47,93.23Z"/>
                <path class="cls-4" d="M782.13,109.78c0,51.49-42.29,93.21-94.47,93.21s-94.42-41.72-94.42-93.21,42.27-93.23,94.42-93.23,94.47,41.75,94.47,93.23Z"/>
                <path class="cls-28" d="M782.54,109.37c0,51.49-42.29,93.21-94.47,93.21s-94.42-41.73-94.42-93.21,42.27-93.23,94.42-93.23,94.47,41.75,94.47,93.23Z"/>
                <path class="cls-40" d="M782.94,108.97c0,51.49-42.29,93.21-94.47,93.21s-94.42-41.73-94.42-93.21,42.27-93.23,94.42-93.23,94.47,41.75,94.47,93.23Z"/>
                <path class="cls-22" d="M783.34,108.56c0,51.49-42.29,93.21-94.47,93.21s-94.42-41.73-94.42-93.21,42.27-93.23,94.42-93.23,94.47,41.74,94.47,93.23Z"/>
                <path class="cls-117" d="M783.75,108.16c0,51.49-42.29,93.21-94.46,93.21s-94.42-41.73-94.42-93.21,42.27-93.23,94.42-93.23,94.46,41.74,94.46,93.23Z"/>
                <path class="cls-30" d="M784.15,107.76c0,51.49-42.29,93.21-94.46,93.21s-94.43-41.73-94.43-93.21,42.27-93.23,94.43-93.23,94.46,41.74,94.46,93.23Z"/>
                <path class="cls-61" d="M784.56,107.35c0,51.48-42.29,93.21-94.46,93.21s-94.43-41.73-94.43-93.21,42.27-93.22,94.43-93.22,94.46,41.74,94.46,93.22Z"/>
                <path class="cls-54" d="M784.96,106.95c0,51.48-42.29,93.21-94.46,93.21s-94.43-41.73-94.43-93.21,42.27-93.22,94.43-93.22,94.46,41.74,94.46,93.22Z"/>
                <path class="cls-121" d="M785.37,106.54c0,51.48-42.29,93.21-94.46,93.21s-94.43-41.73-94.43-93.21,42.27-93.22,94.43-93.22,94.46,41.74,94.46,93.22Z"/>
                <path class="cls-8" d="M785.77,106.14c0,51.48-42.29,93.21-94.46,93.21s-94.43-41.73-94.43-93.21,42.27-93.22,94.43-93.22,94.46,41.74,94.46,93.22Z"/>
                <path class="cls-51" d="M786.17,105.73c0,51.48-42.29,93.21-94.46,93.21s-94.43-41.73-94.43-93.21,42.27-93.22,94.43-93.22,94.46,41.74,94.46,93.22Z"/>
                <path class="cls-37" d="M786.58,105.33c0,51.48-42.29,93.21-94.46,93.21s-94.43-41.73-94.43-93.21,42.28-93.22,94.43-93.22,94.46,41.74,94.46,93.22Z"/>
                <path class="cls-132" d="M786.98,104.93c0,51.48-42.29,93.21-94.46,93.21s-94.43-41.73-94.43-93.21,42.28-93.22,94.43-93.22,94.46,41.74,94.46,93.22Z"/>
                <path class="cls-17" d="M787.39,104.52c0,51.48-42.29,93.22-94.46,93.22s-94.43-41.73-94.43-93.22,42.28-93.22,94.43-93.22,94.46,41.74,94.46,93.22Z"/>
                <path class="cls-56" d="M787.79,104.12c0,51.48-42.29,93.22-94.46,93.22s-94.43-41.73-94.43-93.22,42.28-93.22,94.43-93.22,94.46,41.74,94.46,93.22Z"/>
                <path class="cls-13" d="M788.19,103.71c0,51.48-42.29,93.22-94.46,93.22s-94.43-41.73-94.43-93.22,42.28-93.22,94.43-93.22,94.46,41.74,94.46,93.22Z"/>
                <path class="cls-47" d="M788.6,103.31c0,51.48-42.29,93.22-94.46,93.22s-94.43-41.73-94.43-93.22,42.28-93.22,94.43-93.22,94.46,41.74,94.46,93.22Z"/>
                <path class="cls-32" d="M789,102.91c0,51.48-42.29,93.22-94.46,93.22s-94.43-41.74-94.43-93.22,42.28-93.22,94.43-93.22,94.46,41.74,94.46,93.22Z"/>
                <path class="cls-9" d="M789.41,102.5c0,51.48-42.29,93.22-94.46,93.22s-94.43-41.74-94.43-93.22,42.28-93.21,94.43-93.21,94.46,41.74,94.46,93.21Z"/>
                <path class="cls-137" d="M789.81,102.1c0,51.48-42.29,93.22-94.46,93.22s-94.43-41.74-94.43-93.22,42.28-93.21,94.43-93.21,94.46,41.74,94.46,93.21Z"/>
                <path class="cls-26" d="M790.22,101.69c0,51.48-42.29,93.22-94.46,93.22s-94.43-41.74-94.43-93.22,42.28-93.21,94.43-93.21,94.46,41.74,94.46,93.21Z"/>
                <path class="cls-5" d="M790.62,101.29c0,51.48-42.29,93.22-94.46,93.22s-94.44-41.74-94.44-93.22,42.28-93.21,94.44-93.21,94.46,41.74,94.46,93.21Z"/>
                <path class="cls-3" d="M791.02,100.88c0,51.48-42.29,93.22-94.46,93.22s-94.44-41.74-94.44-93.22S644.41,7.67,696.57,7.67s94.46,41.73,94.46,93.21Z"/>
                <path class="cls-125" d="M791.43,100.48c0,51.48-42.29,93.22-94.46,93.22s-94.44-41.74-94.44-93.22S644.82,7.27,696.97,7.27s94.46,41.73,94.46,93.21Z"/>
                <path class="cls-7" d="M791.83,100.08c0,51.48-42.29,93.22-94.46,93.22s-94.44-41.74-94.44-93.22S645.22,6.87,697.38,6.87s94.46,41.73,94.46,93.21Z"/>
                <path class="cls-69" d="M792.24,99.67c0,51.48-42.29,93.22-94.46,93.22s-94.44-41.74-94.44-93.22S645.63,6.46,697.78,6.46s94.46,41.73,94.46,93.21Z"/>
                <path class="cls-133" d="M792.64,99.27c0,51.48-42.29,93.22-94.46,93.22s-94.44-41.74-94.44-93.22S646.03,6.06,698.19,6.06s94.46,41.73,94.46,93.21Z"/>
                <path class="cls-60" d="M793.04,98.86c0,51.48-42.29,93.22-94.45,93.22s-94.44-41.74-94.44-93.22S646.44,5.66,698.59,5.66s94.45,41.73,94.45,93.21Z"/>
                <path class="cls-49" d="M793.45,98.46c0,51.48-42.29,93.22-94.45,93.22s-94.44-41.74-94.44-93.22S646.84,5.25,698.99,5.25s94.45,41.73,94.45,93.21Z"/>
                <path class="cls-43" d="M793.85,98.05c0,51.48-42.29,93.22-94.45,93.22s-94.44-41.74-94.44-93.22S647.25,4.85,699.4,4.85s94.45,41.73,94.45,93.21Z"/>
                <path class="cls-42" d="M794.26,97.65c0,51.48-42.29,93.22-94.45,93.22s-94.44-41.74-94.44-93.22S647.65,4.45,699.8,4.45s94.45,41.73,94.45,93.21Z"/>
                <path class="cls-2" d="M794.66,97.25c0,51.48-42.29,93.22-94.45,93.22s-94.44-41.74-94.44-93.22S648.05,4.04,700.21,4.04s94.45,41.73,94.45,93.2Z"/>
                <path class="cls-73" d="M795.07,96.84c0,51.48-42.29,93.22-94.45,93.22s-94.44-41.74-94.44-93.22S648.46,3.64,700.61,3.64s94.45,41.73,94.45,93.2Z"/>
                <path class="cls-46" d="M795.47,96.44c0,51.47-42.29,93.22-94.45,93.22s-94.44-41.75-94.44-93.22S648.86,3.24,701.02,3.24s94.45,41.73,94.45,93.2Z"/>
                <path class="cls-53" d="M795.87,96.03c0,51.47-42.29,93.22-94.45,93.22s-94.44-41.75-94.44-93.22S649.27,2.83,701.42,2.83s94.45,41.73,94.45,93.2Z"/>
                <path class="cls-63" d="M796.28,95.63c0,51.47-42.29,93.22-94.45,93.22s-94.44-41.75-94.44-93.22S649.67,2.43,701.83,2.43s94.45,41.73,94.45,93.2Z"/>
                <path class="cls-120" d="M796.68,95.23c0,51.47-42.29,93.22-94.45,93.22s-94.44-41.75-94.44-93.22S650.08,2.03,702.23,2.03s94.45,41.73,94.45,93.2Z"/>
                <path class="cls-38" d="M797.09,94.82c0,51.47-42.29,93.22-94.45,93.22s-94.44-41.75-94.44-93.22S650.48,1.62,702.64,1.62s94.45,41.73,94.45,93.2Z"/>
                <path class="cls-20" d="M797.49,94.42c0,51.47-42.29,93.22-94.45,93.22s-94.45-41.75-94.45-93.22S650.89,1.22,703.04,1.22s94.45,41.73,94.45,93.2Z"/>
                <path class="cls-118" d="M797.89,94.01c0,51.47-42.29,93.22-94.45,93.22s-94.45-41.75-94.45-93.22S651.29.81,703.44.81s94.45,41.73,94.45,93.2Z"/>
              </g>
              <path class="cls-139" d="M797.05,94.83c0,51.47-42.27,93.22-94.43,93.22s-94.47-41.75-94.47-93.22S650.43,1.63,702.63,1.63s94.43,41.72,94.43,93.2Z"/>
              <path class="cls-115" d="M798.71,93.2c0,51.47-42.27,93.2-94.43,93.2s-94.47-41.73-94.47-93.2S652.09,0,704.28,0s94.43,41.73,94.43,93.2Z"/>
              <path class="cls-65" d="M797.89,94.01c0,51.47-42.29,93.22-94.45,93.22s-94.45-41.75-94.45-93.22S651.29.81,703.44.81s94.45,41.73,94.45,93.2Z"/>
            </g>
            <g>
              <g class="cls-44">
                <g class="cls-64">
                  <path class="cls-58" d="M750.76,122.36c0,42.9-34.79,77.69-77.72,77.69s-77.73-34.79-77.73-77.69,34.81-77.73,77.73-77.73,77.72,34.77,77.72,77.73Z"/>
                </g>
                <g class="cls-114">
                  <path class="cls-129" d="M751.46,121.68c0,42.9-34.79,77.69-77.72,77.69s-77.73-34.79-77.73-77.69,34.81-77.73,77.73-77.73,77.72,34.77,77.72,77.73Z"/>
                </g>
                <g class="cls-112">
                  <path class="cls-29" d="M752.17,121.01c0,42.9-34.79,77.69-77.72,77.69s-77.73-34.79-77.73-77.69,34.81-77.73,77.73-77.73,77.72,34.77,77.72,77.73Z"/>
                </g>
                <g class="cls-113">
                  <path class="cls-21" d="M752.87,120.34c0,42.9-34.79,77.69-77.73,77.69s-77.73-34.79-77.73-77.69,34.81-77.73,77.73-77.73,77.73,34.77,77.73,77.73Z"/>
                </g>
                <g class="cls-109">
                  <path class="cls-128" d="M753.58,119.66c0,42.9-34.79,77.69-77.73,77.69s-77.73-34.79-77.73-77.69,34.81-77.73,77.73-77.73,77.73,34.77,77.73,77.73Z"/>
                </g>
                <g class="cls-111">
                  <path class="cls-62" d="M754.28,118.99c0,42.9-34.79,77.69-77.73,77.69s-77.73-34.79-77.73-77.69,34.81-77.73,77.73-77.73,77.73,34.77,77.73,77.73Z"/>
                </g>
                <g class="cls-110">
                  <path class="cls-122" d="M754.99,118.31c0,42.9-34.79,77.69-77.73,77.69s-77.73-34.79-77.73-77.69,34.81-77.73,77.73-77.73,77.73,34.78,77.73,77.73Z"/>
                </g>
                <g class="cls-104">
                  <path class="cls-52" d="M755.69,117.64c0,42.9-34.79,77.69-77.73,77.69s-77.73-34.79-77.73-77.69,34.81-77.73,77.73-77.73,77.73,34.78,77.73,77.73Z"/>
                </g>
                <g class="cls-103">
                  <path class="cls-18" d="M756.39,116.97c0,42.9-34.79,77.69-77.73,77.69s-77.73-34.79-77.73-77.69,34.81-77.73,77.73-77.73,77.73,34.78,77.73,77.73Z"/>
                </g>
                <g class="cls-102">
                  <path class="cls-16" d="M757.1,116.29c0,42.9-34.79,77.69-77.73,77.69s-77.73-34.8-77.73-77.69,34.81-77.73,77.73-77.73,77.73,34.78,77.73,77.73Z"/>
                </g>
                <g class="cls-108">
                  <path class="cls-1" d="M757.8,115.62c0,42.89-34.8,77.69-77.73,77.69s-77.73-34.8-77.73-77.69,34.81-77.73,77.73-77.73,77.73,34.78,77.73,77.73Z"/>
                </g>
                <g class="cls-107">
                  <path class="cls-50" d="M758.51,114.95c0,42.89-34.8,77.69-77.73,77.69s-77.73-34.8-77.73-77.69,34.81-77.73,77.73-77.73,77.73,34.78,77.73,77.73Z"/>
                </g>
                <g class="cls-106">
                  <path class="cls-10" d="M759.21,114.27c0,42.89-34.8,77.69-77.73,77.69s-77.73-34.8-77.73-77.69,34.81-77.73,77.73-77.73,77.73,34.78,77.73,77.73Z"/>
                </g>
                <g class="cls-105">
                  <path class="cls-55" d="M759.92,113.6c0,42.89-34.8,77.69-77.73,77.69s-77.73-34.8-77.73-77.69,34.81-77.73,77.73-77.73,77.73,34.78,77.73,77.73Z"/>
                </g>
                <g class="cls-92">
                  <path class="cls-6" d="M760.62,112.93c0,42.89-34.8,77.69-77.73,77.69s-77.73-34.8-77.73-77.69,34.81-77.73,77.73-77.73,77.73,34.78,77.73,77.73Z"/>
                </g>
                <g class="cls-91">
                  <path class="cls-126" d="M761.33,112.25c0,42.89-34.8,77.69-77.73,77.69s-77.73-34.8-77.73-77.69,34.81-77.73,77.73-77.73,77.73,34.78,77.73,77.73Z"/>
                </g>
                <g class="cls-90">
                  <path class="cls-68" d="M762.03,111.58c0,42.89-34.8,77.69-77.73,77.69s-77.73-34.8-77.73-77.69,34.81-77.74,77.73-77.74,77.73,34.78,77.73,77.74Z"/>
                </g>
                <g class="cls-89">
                  <path class="cls-134" d="M762.74,110.91c0,42.89-34.8,77.69-77.73,77.69s-77.73-34.8-77.73-77.69,34.81-77.74,77.73-77.74,77.73,34.78,77.73,77.74Z"/>
                </g>
                <g class="cls-88">
                  <path class="cls-48" d="M763.44,110.23c0,42.89-34.8,77.69-77.73,77.69s-77.73-34.8-77.73-77.69,34.81-77.74,77.73-77.74,77.73,34.78,77.73,77.74Z"/>
                </g>
                <g class="cls-101">
                  <path class="cls-41" d="M764.14,109.56c0,42.89-34.8,77.69-77.73,77.69s-77.73-34.8-77.73-77.69,34.8-77.74,77.73-77.74,77.73,34.78,77.73,77.74Z"/>
                </g>
                <g class="cls-100">
                  <path class="cls-27" d="M764.85,108.88c0,42.89-34.8,77.69-77.73,77.69s-77.73-34.8-77.73-77.69,34.8-77.74,77.73-77.74,77.73,34.78,77.73,77.74Z"/>
                </g>
                <g class="cls-99">
                  <path class="cls-45" d="M765.55,108.21c0,42.89-34.8,77.69-77.73,77.69s-77.73-34.8-77.73-77.69,34.8-77.74,77.73-77.74,77.73,34.78,77.73,77.74Z"/>
                </g>
                <g class="cls-98">
                  <path class="cls-72" d="M766.26,107.54c0,42.89-34.8,77.69-77.73,77.69s-77.73-34.81-77.73-77.69,34.8-77.74,77.73-77.74,77.73,34.78,77.73,77.74Z"/>
                </g>
                <g class="cls-97">
                  <path class="cls-74" d="M766.96,106.86c0,42.89-34.8,77.69-77.73,77.69s-77.73-34.81-77.73-77.69,34.8-77.74,77.73-77.74,77.73,34.78,77.73,77.74Z"/>
                </g>
                <g class="cls-96">
                  <path class="cls-19" d="M767.67,106.19c0,42.89-34.8,77.69-77.74,77.69s-77.73-34.81-77.73-77.69,34.8-77.74,77.73-77.74,77.74,34.78,77.74,77.74Z"/>
                </g>
                <g class="cls-94">
                  <path class="cls-138" d="M768.37,105.52c0,42.89-34.8,77.69-77.74,77.69s-77.73-34.81-77.73-77.69,34.8-77.74,77.73-77.74,77.74,34.78,77.74,77.74Z"/>
                </g>
                <g class="cls-95">
                  <path class="cls-130" d="M769.08,104.84c0,42.89-34.8,77.69-77.74,77.69s-77.73-34.81-77.73-77.69,34.8-77.74,77.73-77.74,77.74,34.78,77.74,77.74Z"/>
                </g>
                <g class="cls-93">
                  <path class="cls-119" d="M769.78,104.17c0,42.88-34.8,77.69-77.74,77.69s-77.73-34.81-77.73-77.69,34.8-77.74,77.73-77.74,77.74,34.78,77.74,77.74Z"/>
                </g>
                <g class="cls-84">
                  <path class="cls-131" d="M770.48,103.5c0,42.88-34.81,77.69-77.74,77.69s-77.73-34.81-77.73-77.69,34.8-77.74,77.73-77.74,77.74,34.78,77.74,77.74Z"/>
                </g>
                <g class="cls-82">
                  <path class="cls-24" d="M771.19,102.82c0,42.88-34.81,77.69-77.74,77.69s-77.73-34.81-77.73-77.69,34.8-77.74,77.73-77.74,77.74,34.79,77.74,77.74Z"/>
                </g>
                <g class="cls-83">
                  <path class="cls-116" d="M771.89,102.15c0,42.88-34.81,77.7-77.74,77.7s-77.73-34.81-77.73-77.7,34.8-77.74,77.73-77.74,77.74,34.79,77.74,77.74Z"/>
                </g>
                <g class="cls-81">
                  <path class="cls-70" d="M772.6,101.48c0,42.88-34.81,77.7-77.74,77.7s-77.72-34.81-77.72-77.7,34.8-77.74,77.72-77.74,77.74,34.79,77.74,77.74Z"/>
                </g>
                <g class="cls-80">
                  <path class="cls-15" d="M773.3,100.8c0,42.88-34.81,77.7-77.74,77.7s-77.72-34.81-77.72-77.7,34.8-77.74,77.72-77.74,77.74,34.79,77.74,77.74Z"/>
                </g>
                <g class="cls-79">
                  <path class="cls-136" d="M774.01,100.13c0,42.88-34.81,77.7-77.74,77.7s-77.72-34.81-77.72-77.7,34.8-77.74,77.72-77.74,77.74,34.79,77.74,77.74Z"/>
                </g>
                <g class="cls-77">
                  <path class="cls-25" d="M774.71,99.45c0,42.88-34.81,77.7-77.74,77.7s-77.72-34.82-77.72-77.7,34.8-77.74,77.72-77.74,77.74,34.79,77.74,77.74Z"/>
                </g>
                <g class="cls-78">
                  <path class="cls-11" d="M775.42,98.78c0,42.88-34.81,77.7-77.74,77.7s-77.72-34.82-77.72-77.7,34.8-77.74,77.72-77.74,77.74,34.79,77.74,77.74Z"/>
                </g>
                <g class="cls-76">
                  <path class="cls-12" d="M776.12,98.11c0,42.88-34.81,77.7-77.74,77.7s-77.72-34.82-77.72-77.7,34.8-77.74,77.72-77.74,77.74,34.79,77.74,77.74Z"/>
                </g>
                <g class="cls-75">
                  <path class="cls-127" d="M776.83,97.43c0,42.88-34.81,77.7-77.74,77.7s-77.72-34.82-77.72-77.7,34.8-77.74,77.72-77.74,77.74,34.79,77.74,77.74Z"/>
                </g>
                <g class="cls-86">
                  <path class="cls-135" d="M777.53,96.76c0,42.88-34.81,77.7-77.74,77.7s-77.72-34.82-77.72-77.7,34.8-77.74,77.72-77.74,77.74,34.79,77.74,77.74Z"/>
                </g>
                <g class="cls-87">
                  <path class="cls-23" d="M778.23,96.09c0,42.88-34.81,77.7-77.74,77.7s-77.72-34.82-77.72-77.7,34.8-77.74,77.72-77.74,77.74,34.79,77.74,77.74Z"/>
                </g>
                <g class="cls-85">
                  <path class="cls-123" d="M778.94,95.41c0,42.88-34.81,77.7-77.74,77.7s-77.72-34.82-77.72-77.7,34.8-77.75,77.72-77.75,77.74,34.79,77.74,77.75Z"/>
                </g>
                <path class="cls-14" d="M779.64,94.74c0,42.88-34.81,77.7-77.74,77.7s-77.72-34.82-77.72-77.7,34.8-77.75,77.72-77.75,77.74,34.79,77.74,77.75Z"/>
              </g>
              <path class="cls-18" d="M780.96,94.74c0,42.88-34.84,77.7-77.75,77.7s-77.74-34.82-77.74-77.7,34.81-77.75,77.74-77.75,77.75,34.79,77.75,77.75Z"/>
              <path class="cls-58" d="M782.28,93.4c0,42.95-34.8,77.72-77.74,77.72s-77.72-34.77-77.72-77.72,34.79-77.75,77.72-77.75,77.74,34.84,77.74,77.75Z"/>
              <path class="cls-35" d="M780.96,94.74c0,42.88-34.84,77.7-77.75,77.7s-77.74-34.82-77.74-77.7,34.81-77.75,77.74-77.75,77.75,34.79,77.75,77.75Z"/>
            </g>
          </g>
          <g>
            <path class="cls-67" d="M649.84,94.01c-.55,4.75-1.23,8.56-2.03,11.17l-2.88-1.26c1.37-2.72,2.58-5.87,3.84-10.18l1.07.27ZM648.82,92.06c-1.15-1.59-2.47-3.1-3.68-4.36l.66-.93c1.65.77,3.43,1.84,4.97,3.21l-1.95,2.08ZM648.46,86.08c-1.04-1.65-2.08-3.13-3.24-4.47l.71-.82c1.37.66,3.1,1.89,4.64,3.4l-2.11,1.89ZM657.74,96.78c-2.17,1.87-4.36,3.21-7.05,4.33l-1.15-2.63c1.1-.27,2.06-.55,2.96-.82v-11.08h-2.36v-1.37h7.33v1.37h-2.36v10.12c.66-.27,1.34-.55,2.09-.91l.55.99ZM656.8,98.84l1.07.19c-.05,2.72-.6,5.19-1.51,6.83l-2.39-1.45c1.4-1.48,2.19-2.94,2.83-5.57ZM660.56,94.15v1.26h8.34c-.11,4.47-.3,6.94-.6,8.64-.52,2.85-3.65,2.61-6.34.66l.36-1.07c2.58.74,3.4.36,3.54-.6.14-.77.22-1.73.33-3.32l-1.56,1.4c-.66-1.32-1.4-2.39-2.17-3.51l.63-.63c1.15.74,2.19,1.65,3.1,2.69.03-.79.08-1.73.11-2.88h-5.73v1.18h-2.61v-13.88h3.21c.25-.99.41-2.3.49-3.51l2.96.6c-.58.96-1.34,2.11-2.03,2.91h4.99v7.33h-7.02v1.37h8.67v1.37h-8.67ZM659.55,98.84c.66,1.34,1.4,3.38,1.73,4.75l-2.28.44c-.03-1.62-.17-3.54-.33-4.97l.88-.22ZM660.54,86.99h4.47v-1.54h-4.47v1.54ZM660.54,90.03h4.47v-1.67h-4.47v1.67ZM662.04,102.71c-.44-1.56-.91-2.99-1.4-4.25l.77-.47c.93,1.04,1.89,2.44,2.58,3.73l-1.95.99Z"/>
            <path class="cls-67" d="M685.06,95.93h5.43v1.37h-5.62c-.69,4.14-2.41,6.8-6.5,9.27l-.69-.91c2.96-2.8,4.06-5.08,4.47-8.37h-5.24v-1.37h5.38c.08-1.21.11-2.58.11-4.12h-4.36v-1.34h4.36v-3.43c-1.54.25-3.24.44-5.05.58l-.25-1.15c2.14-.44,3.84-.88,5.29-1.32v-4.42h2.85v3.35c.99-.41,1.89-.88,2.77-1.37l2.25,2.3c-1.4.55-3.07,1.07-5.02,1.48v3.98h4.53v1.34h-4.53c-.03,1.51-.08,2.88-.19,4.12ZM694.3,101.09l.3-1.1c2.72.58,3.13-.08,3.04-2.19-.11-2.17-1.01-4.58-2.39-6.67.71-2.44,1.32-5.08,1.62-7.54h-3.29v22.74h-2.77v-24.88l2.66.74h3.26l.74-.52,2.58,1.1c-1.18,3.62-2.19,5.87-3.51,8.26,2,2.3,3.59,4.5,3.95,7.13.55,4.47-2.96,5.13-6.2,2.94Z"/>
            <path class="cls-67" d="M732.98,102.44l-.93,3.18c-2.28.16-4.99.25-7.49.16-5.1-.16-8.94-.99-11.52-3.51-1.18,1.7-2.66,3.13-4.42,4.23l-.69-.93c1.32-1.1,2.66-2.63,3.79-4.88-1.04-1.56-1.78-3.57-2.25-6.15l1.1-.33c.52,1.87,1.18,3.35,1.98,4.53.69-1.87,1.23-4.17,1.51-6.94h-2.19c-.41.74-.8,1.34-1.1,1.78l-2.2-.88c1.34-2.22,3.13-5.76,4.25-8.72h-4.36v-1.34h7.76c-.8,2.14-2.28,5.32-3.62,7.82h1.34l.63-.47,2.3.85c-.41,3.7-1.29,7-2.77,9.71,2.36,2,5.68,2.5,10.29,2.5,3.02-.03,5.98-.3,8.59-.6ZM722.17,88h-5.82v-1.32h5.82v-2.14h-4.5v-1.34h4.5v-2.36h2.69v2.36h5.29v3.48h2.25v1.32h-2.25v3.65h-5.29v2.03h5.46v1.37h-5.46v2.3h6.75v1.37h-6.75v3.43h-2.69v-3.43h-5.82v-1.37h5.82v-2.3h-4.83v-1.37h4.83v-2.03h-4.58v-1.37h4.58v-2.28ZM724.86,86.69h2.83v-2.14h-2.83v2.14ZM724.86,90.28h2.83v-2.28h-2.83v2.28Z"/>
            <path class="cls-67" d="M750.39,87.04h-10.59v-1.43h4.91c-.79-1.59-1.78-3.35-2.41-4.36l.82-.71c1.32.93,3.04,2.69,4.09,4.14l-1.34.93h4.53v1.43ZM740.76,90.8v-1.37h8.59v1.37h-8.59ZM749.35,94.62h-8.59v-1.4h8.59v1.4ZM749.52,104.16h-6.12v1.92h-2.58v-8.97h8.7v7.05ZM746.96,98.48h-3.57v4.28h3.57v-4.28ZM762.96,106.22c-2.52-.74-4.66-1.95-6.37-3.51-1.98,1.62-4.44,2.96-7.54,3.81l-.44-1.04c2.8-1.12,4.94-2.66,6.53-4.31-1.54-1.89-2.61-4.14-3.16-6.67h-1.54v-1.4h8.37l.8-.52,2.72,1.21c-.79,2.58-2.03,4.99-3.87,7.08,1.98,1.18,4.12,1.78,5.98,2.2l-1.48,3.16ZM749.43,91.82c2.22-1.81,2.74-2.72,2.74-6.91v-2.55h7.96v5.62c0,.85.11,1.18,1.04,1.18.82,0,1.26-.08,1.95-.71l1.18,2.03c-.77.77-1.89,1.1-3.76,1.1-2.52,0-3.13-.71-3.13-3.05v-4.77h-2.5v1.26c0,4.47-1.73,6.31-4.88,7.74l-.6-.93ZM756.54,99.5c1.23-1.67,1.97-3.4,2.41-4.99h-5.73c.77,2.17,1.95,3.79,3.32,4.99Z"/>
          </g>
        </g>
      </g>
    </g>
  </g>
</svg>