<svg xmlns="http://www.w3.org/2000/svg" xmlns:xlink="http://www.w3.org/1999/xlink" viewBox="0 0 440.05 104.01"><defs><style>.cls-1{font-size:10.17px;font-family:UniversCE-Medium, UniversCE Medium;font-weight:500;letter-spacing:0.68em;}.cls-1,.cls-6{fill:#3e3a39;}.cls-2{letter-spacing:0.66em;}.cls-3{letter-spacing:0.65em;}.cls-4{letter-spacing:0.68em;}.cls-5{letter-spacing:0.59em;}.cls-7{fill:url(#未命名漸層_12);}.cls-8{fill:url(#未命名漸層_12-2);}.cls-9{fill:url(#未命名漸層_12-3);}.cls-10{fill:#fff;}</style><linearGradient id="未命名漸層_12" x1="48.93" y1="87.3" x2="48.93" y2="10.74" gradientTransform="translate(51.49 -19.2) rotate(45)" gradientUnits="userSpaceOnUse"><stop offset="0" stop-color="#004061"/><stop offset="1" stop-color="#00638f"/></linearGradient><linearGradient id="未命名漸層_12-2" x1="26.79" y1="13.56" x2="26.79" y2="72.3" gradientTransform="matrix(1, 0, 0, 1, 0, 0)" xlink:href="#未命名漸層_12"/><linearGradient id="未命名漸層_12-3" x1="70.91" y1="13.56" x2="70.91" y2="72.3" gradientTransform="matrix(1, 0, 0, 1, 0, 0)" xlink:href="#未命名漸層_12"/></defs><g id="圖層_2" data-name="圖層 2"><g id="圖層_1-2" data-name="圖層 1"><text class="cls-1" transform="translate(127.75 101.47) scale(1.01 1)">JIAN-LIN INDUSTRIAL.<tspan class="cls-2" x="230.09" y="0">C</tspan><tspan class="cls-3" x="242.68" y="0">O</tspan><tspan class="cls-4" x="256.25" y="0">.</tspan><tspan class="cls-5" x="265.27" y="0">L</tspan><tspan x="276.08" y="0">TD</tspan></text><rect class="cls-6" x="117.35" y="19.76" width="20" height="2.68"/><rect class="cls-6" x="144.58" y="21.86" width="32.58" height="2.95"/><rect class="cls-6" x="369.84" y="44.88" width="64.27" height="2.95"/><rect class="cls-6" x="366.25" y="31.88" width="73.16" height="2.95"/><rect class="cls-6" x="369.84" y="52.92" width="64.27" height="2.95"/><rect class="cls-6" x="366.68" y="61.22" width="70.94" height="2.95"/><rect class="cls-6" x="288.4" y="19.57" width="62.99" height="3.43"/><rect class="cls-6" x="284.67" y="78.14" width="72.05" height="3.52"/><rect class="cls-6" x="141.12" y="31.51" width="48.77" height="2.95"/><rect class="cls-6" x="144.62" y="41.16" width="36.04" height="2.95"/><rect class="cls-6" x="199.3" y="29.11" width="35.12" height="3.31"/><rect class="cls-6" x="236.91" y="29.11" width="36.84" height="3.31"/><rect class="cls-6" x="143.74" y="51.91" width="38.43" height="2.95"/><rect class="cls-6" x="140.31" y="62.2" width="44.46" height="2.95"/><path class="cls-6" d="M118.9,44.62l.87-1.48V43c.66-.23.69-.62,1.14-1.15l.16-.19h17.11v2.95Z"/><path class="cls-6" d="M131,16.64h9.6s.49,15.77-23,28.75a0,0,0,0,1,0,0C118.84,44.08,132.29,30.36,131,16.64Z"/><path class="cls-6" d="M132.72,39.37h8.62s1.23,35.1-26.76,45C114.58,84.4,135.27,73.08,132.72,39.37Z"/><path class="cls-6" d="M120.12,50c0-.07.1-.08.11,0,.75,5.77,4.83,28,23.16,28.07s46,0,46,0h0l-3.11,6.23H143.06c-9.05,0-15.1-1-19.78-13.55C120.81,64.09,120.24,53.67,120.12,50Z"/><rect class="cls-6" x="156.91" y="15.01" width="8.82" height="59.98"/><rect class="cls-6" x="212.26" y="15.01" width="9.09" height="69.62"/><rect class="cls-6" x="247.63" y="15.01" width="9.09" height="69.62"/><rect class="cls-6" x="314.18" y="21.65" width="9.86" height="59.15"/><rect class="cls-6" x="396.83" y="46.65" width="9.38" height="38.56"/><rect class="cls-6" x="390.51" y="15.97" width="8.45" height="17.26"/><rect class="cls-6" x="405.82" y="15.97" width="8.45" height="17.26"/><rect class="cls-6" x="173.8" y="21.87" width="8.82" height="22.24"/><path class="cls-6" d="M210.74,31.43s-2.19,34-13.06,43.17h0s12.09-4.95,17.43-27.92c1.39-6-1.48-15-1.48-15Z"/><path class="cls-6" d="M245.93,31.43s-2.15,26.73-18.55,43.17h0s15.45-7,22.93-27.92c2.06-5.76-1.48-15-1.48-15Z"/><path class="cls-6" d="M398.43,63a10.33,10.33,0,0,1-3-.68,5.35,5.35,0,0,1-4.74-.26c-5.2,7.14-14.09,16.8-26.74,21.84,0,0,15-.11,33.91-18.53A7.32,7.32,0,0,0,399.49,63,3.42,3.42,0,0,1,398.43,63Z"/><path class="cls-6" d="M218.61,40.48s11.15,13.73,10.81,17l5.66-7.38S229.76,44.26,218.61,40.48Z"/><path class="cls-6" d="M258.24,31.05s-1.55,34.65,15.61,42.89V61.88s-13.21-7.59-14.24-30.45Z"/><path class="cls-6" d="M408.21,62.5s5.71,16.11,27.32,21.06l4.52-7.1s-25.44-4.28-29.4-13.89Z"/><path class="cls-6" d="M373.27,17.88s3.73,9.4,7.85,12.48L387,24.83A70.47,70.47,0,0,1,373.27,17.88Z"/><path class="cls-6" d="M418.46,32.24a34.55,34.55,0,0,0,14.05-8.89l-6.66-6A71.94,71.94,0,0,1,418.46,32.24Z"/><path class="cls-6" d="M407.29,47a40,40,0,0,0,15.4-8.45L415.46,33A65,65,0,0,1,407.29,47Z"/><path class="cls-6" d="M396.32,47a40.09,40.09,0,0,1-15.4-8.45L388.15,33A65,65,0,0,0,396.32,47Z"/><path class="cls-7" d="M20.7,15.21H85.9a0,0,0,0,1,0,0V81.15a8.75,8.75,0,0,1-8.75,8.75h-51A14.21,14.21,0,0,1,12,75.68V24a8.75,8.75,0,0,1,8.75-8.75Z" transform="translate(-22.83 49.99) rotate(-45)"/><polygon class="cls-8" points="29.18 19.5 20.59 28.01 20.59 77.47 26.77 79.01 32.99 68.59 29.18 19.5"/><polygon class="cls-9" points="68.53 19.86 77.11 28.45 77.11 77.88 70.93 79.43 64.71 69 68.53 19.86"/><path class="cls-10" d="M55,19.92h13.5V65.84A4.13,4.13,0,0,0,72.67,70H94.51V82H70.09A15,15,0,0,1,55,66.94Z"/><path class="cls-10" d="M42.3,19.92V59.84c0,5.82,0,13.93-5.75,18.8-2.44,2-6.2,4.22-13.28,4.22-10.92,0-18.59-4.58-19.11-17.75L17,62.83c.07,3,.22,8.8,5.9,8.8,5.9,0,5.9-6.07,5.9-10.21V19.92Z"/></g></g></svg>